<!-- Generated by IcoMoon.io -->
<svg version="1.1" xmlns="http://www.w3.org/2000/svg" width="1200" height="1200" viewBox="0 0 1200 1200">
<title>female</title>
<path d="M987.001 716.094h-329v-102.333c144.289-28.246 251.667-153.676 251.667-304.187 0-171.025-138.642-309.667-309.667-309.667s-309.667 138.642-309.667 309.667c0 150.511 107.378 275.941 249.707 303.866l1.959 0.32v102.333h-329v117.333h329v366.667h116v-366.667h329zM402.001 309.761c0-109.352 88.648-198 198-198s198 88.648 198 198c0 109.352-88.648 198-198 198v0c-109.352 0-198-88.648-198-198v0z"></path>
</svg>
