<?xml version="1.0" encoding="UTF-8" standalone="no"?>
<!DOCTYPE svg PUBLIC "-//W3C//DTD SVG 1.1//EN" "http://www.w3.org/Graphics/SVG/1.1/DTD/svg11.dtd">
<svg width="100%" height="100%" viewBox="0 0 780 780" version="1.1" xmlns="http://www.w3.org/2000/svg" xmlns:xlink="http://www.w3.org/1999/xlink" xml:space="preserve" xmlns:serif="http://www.serif.com/" style="fill-rule:evenodd;clip-rule:evenodd;stroke-linejoin:round;stroke-miterlimit:2;">
    <g>
        <path d="M734.6,390C734.6,580.3 580.3,734.6 390,734.6C199.7,734.6 45.4,580.3 45.4,390" style="fill:white;fill-rule:nonzero;"/>
        <path d="M45.4,390C45.4,199.7 199.7,45.4 390,45.4C580.3,45.4 734.6,199.7 734.6,390" style="fill:rgb(228,11,32);fill-rule:nonzero;"/>
        <circle cx="390" cy="390" r="114" style="fill:white;"/>
        <path d="M390,0C605.247,0 780,174.753 780,390C780,605.247 605.247,780 390,780C174.753,780 0,605.247 0,390C0,174.753 174.753,0 390,0ZM225.105,417.8L46.505,417.8C60.663,595.103 209.058,734.6 390,734.6C570.942,734.6 719.337,595.103 733.495,417.8L554.895,417.8C541.64,496.868 472.81,557.2 390,557.2C307.19,557.2 238.36,496.868 225.105,417.8ZM554.878,362.1L733.487,362.1C719.281,184.845 570.908,45.4 390,45.4C209.092,45.4 60.719,184.845 46.513,362.1L225.122,362.1C238.418,283.081 307.225,222.8 390,222.8C472.775,222.8 541.582,283.081 554.878,362.1ZM500.58,417.8C502.814,408.901 504,399.588 504,390C504,380.376 502.805,371.029 500.555,362.1C488.097,312.65 443.295,276 390,276C336.705,276 291.903,312.65 279.445,362.1C277.195,371.029 276,380.376 276,390C276,399.588 277.186,408.901 279.42,417.8C291.843,467.3 336.67,504 390,504C443.33,504 488.157,467.3 500.58,417.8Z"/>
    </g>
</svg>
