<svg height="512pt" preserveAspectRatio="xMidYMid meet" viewBox="0 0 512 512" width="512pt" xmlns="http://www.w3.org/2000/svg"><path d="m0 2560v-2560h2560 2560v2560 2560h-2560-2560zm1601 2374c19-17 46-99 125-374 26-91 53-177 60-191 17-34 29-39 339-153 173-63 266-102 278-117 34-42 15-106-40-127-15-6-140-39-278-72-137-33-267-67-287-76-44-20-43-17-167-318-50-120-97-229-105-241-32-48-123-39-150 14-8 14-22 54-31 89l-18 62 81 78c65 62 83 86 93 122 21 80-15 166-89 212-33 21-48 23-136 21-98-2-102-1-255 54-146 52-160 60-216 113-67 64-116 85-181 77-40-4-45-2-50 18-9 35 21 82 58 94 18 6 152 40 297 76s272 70 282 76c25 13 35 34 144 296 102 244 115 269 148 283 28 12 76 4 98-16zm-447-171c-9-21-30-73-47-117-20-50-38-81-52-87-11-5-112-31-225-59-289-71-320-83-379-138-116-109-131-281-37-405l34-44 6-154 7-154-70-58-71-58v656 655h425 425zm1246-58v-95h-39c-49 0-190-24-304-51-48-12-89-20-91-18-4 4-76 245-76 254 0 3 115 5 255 5h255zm2400-945v-1040h-94-93l-7 73c-10 109-51 295-92 415-209 617-689 1097-1306 1306-120 41-306 82-415 92l-73 7v93 94h1040 1040zm-4014 81c66-70 128-134 139-140 17-10 52-9 165 4 80 9 168 19 195 22 42 4 53 2 69-15 32-36 14-62-121-174-71-59-139-118-152-132l-23-24 12-186c12-175 12-187-5-206-33-36-59-25-137 57-40 43-100 106-133 141l-61 64-198-22-198-22-20 20c-36 36-18 62 136 192 79 67 146 130 149 140s1 67-4 127c-13 174-11 249 7 267 35 35 58 21 180-113zm1965-710c172-55 327-212 382-386 31-99 31-271 0-370-56-177-211-332-388-388-55-17-94-22-185-22-138 0-222 22-318 85-173 111-268 273-279 476-12 204 72 391 230 509 79 60 123 82 210 106 95 25 252 21 348-10zm-2207-148c-13-60-26-143-30-185l-7-78h-93-94v174 174l93 10c50 5 106 10 123 11l30 1zm1156-615c48-186 112-300 240-428 173-173 381-260 620-260s447 87 620 260c128 128 192 242 240 428l11 42h469 470v-26c0-89-53-319-107-464-181-485-578-882-1063-1063-217-81-391-111-640-111-195 0-282 10-445 51-647 161-1157 672-1319 1321-25 100-46 221-46 266v26h470 469zm-1186-40c28-281 137-592 302-858 323-523 915-897 1512-956l72-7v-93-94h-1040-1040v1040 1040h94 93zm4286-968v-1040h-1040-1040v94 93l76 6c251 22 581 134 826 283 281 171 531 421 702 702 149 245 261 575 283 826l6 76h93 94z" transform="matrix(.1 0 0 -.1 0 512)"/></svg>