<svg enable-background="new 0 0 1024 1024" viewBox="0 0 1024 1024" xmlns="http://www.w3.org/2000/svg"><path d="m334.055542 895.971313c9.395142-5.10968 18.756409-9.585266 27.488251-15.063964 17.860656-11.206482 28.363739-27.074341 31.370178-48.455994 3.941986-28.0354 5.967926-56.233215 9.00766-84.340332 2.487121-22.997376 7.383301-45.601563 13.044098-68.054443 3.982116-15.794678 5.131744-32.189942 9.313934-47.97461.529968-2.000244-.230286-3.172668-1.858795-4.099182-4.481445-2.549683-5.33429-6.325134-4.092285-11.112121 7.476806-28.816956 14.803314-57.672913 22.31134-86.481629 2.223541-8.53186 4.876221-16.95166 7.316956-25.427215.274322-.952546.800048-2.006592.616943-2.890961-2.674225-12.915863 2.996796-24.503113 5.661682-36.577088 4.478821-20.292602 9.010437-40.517273 8.672363-61.582336-.149414-9.309998-4.449188-13.99649-12.636474-17.091431-5.685394 7.714325-11.379517 15.477692-17.115753 23.209839-3.474701 4.683716-6.948792 9.370484-10.540131 13.964447-5.946564 7.60672-13.428406 10.375031-22.970154 7.581482-16.549469-4.845154-32.097717-12.084839-47.544922-19.550079-9.145691-4.419861-18.103027-9.23642-27.064056-14.026215-2.150024-1.149261-4.262054-1.596832-6.650208-1.686004-8.634338-.322419-16.783783-1.582795-19.905426-11.542176-.614929-1.961975-2.605957-2.507354-4.290313-3.152435-11.181549-4.282562-22.096833-9.485718-34.210755-10.720551-5.258362-.53601-7.873535-4.075622-9.867599-8.187439-3.341309-6.889862-6.551865-13.856292-9.475342-20.931854-2.77771-6.722717-1.389008-9.339203 5.446579-11.625885.909256-.304199 1.828217-.579376 2.938873-.929901-1.251968-3.526245-4.305923-7.075745-.378647-10.142578 3.996811-3.121124 7.512284-.733368 10.446488 2.092834 2.599396-.57846 3.726837-2.598754 5.298736-4.000305 10.181-9.077636 22.657227-11.601928 32.641449-6.179901 8.135498 4.417999 13.362153 11.117798 13.531098 20.703858.158111 8.969207-4.874664 14.44873-14.325867 17.478118 5.341492 1.832215 9.536835 3.243378 13.710236 4.716584 1.660278.586029 2.872528-.361237 4.210418-.994965 5.33313-2.526123 10.700806-2.079376 16.002076.025177 4.005676 1.590271 6.752746 4.505554 7.079681 8.889313.255829 3.430054 1.972717 4.869507 5.018494 5.834686 19.36676 6.136994 38.702667 12.371887 58.02713 18.641235 5.031006 1.632203 8.888885.960236 11.901825-3.980041 2.853058-4.678131 6.336792-8.983398 9.685852-13.342987 2.130981-2.773956 2.349121-4.987579-.152985-7.896118-9.990967-11.613922-9.866424-13.263153 1.85138-23.185334 8.887207-7.52539 17.671264-15.15805 28.286682-20.429168 4.822479-2.394592 8.27948-7.226258 13.789612-8.781922 1.671173-.471832 1.637359-1.845611 1.388031-3.265411-1.23407-7.02713.666534-14.247681-1.830109-21.301849-1.269287-3.586304 2.122894-4.389527 4.998657-4.181763 6.481262.468353 12.931976.928192 19.416901-.111084 2.297058-.368134 4.576629-.63208 6.783478-1.555389-5.159729-3.121369-5.159699-3.121338-10.503663.175232-4.321472 2.665893-11.05899 1.505096-14.137542-3.289551-3.178315-4.949921-6.699128-6.142945-12.470307-4.958832-9.658905 1.981873-19.563171 1.866852-29.320923.148102-6.238891-1.098969-7.436645-4.108032-4.073761-9.563935 4.290772-6.96138 11.050995-11.476028 16.952698-16.838256 2.038483-1.852204 4.613556-3.240921 5.840668-6.622528-8.212433-2.823975-16.123169-5.770325-23.537415-9.83429-1.314117-.720306-2.655731-1.391892-3.954895-2.137772-4.066894-2.334884-5.477508-5.653015-3.638733-10.112548 1.249024-3.029191 2.5336-6.043732 4.121369-9.824662-6.965881-.373977-13.351044-.728546-19.737579-1.055893-4.997193-.256118-10.006073-.645935-14.797699-2.086914-5.768311-1.73468-6.870911-5.579269-3.006745-10.135025 5.216675-6.150329 11.507416-11.050094 18.273529-15.414154 4.332672-2.794586 8.360504-6.059509 12.670929-8.891464 6.458954-4.24353 8.315705-9.930725 7.412689-17.560608-1.053924-8.905045-.798523-17.937485-.194458-26.941643.551941-8.227157 4.891999-13.935325 11.059204-18.690651 12.837647-9.898643 27.961701-14.369407 43.256318-18.723022 36.15567-10.29171 70.151825-4.008705 103.091339 12.295631 9.049316 4.47921 14.354248 11.516526 16.619629 21.187035 2.96759 12.668518 5.426452 25.416183 4.956421 38.491211-.166687 4.636947 1.529724 6.24115 6.029235 6.054931 12.976563-.537017 25.96045-.946945 38.945496-1.200241 3.369385-.065719 7.672852-.972808 9.512695 2.711884 1.872437 3.75-1.136108 6.985077-3.194763 9.932648-2.454163 3.5139-5.261108 6.781402-8.377502 10.743393 5.685241 1.266174 10.79956 2.419769 15.920776 3.542144 6.688293 1.465805 13.24939 3.343766 19.486084 6.203232 6.628906 3.039276 7.594788 6.327805 3.143372 12.560196-11.679505 16.352158-26.384461 29.486435-43.388428 40.127365-8.346253 5.223038-17.3526 9.066406-26.69574 12.659363.948486 4.167542 3.87616 6.898224 5.224732 10.423187 2.274963 5.946564 1.401977 7.57428-5.109742 7.460907-9.034301-.157257-17.93341-1.532043-26.442932-4.661102-5.619934-2.066559-11.090149-4.542419-16.614624-6.86557-1.511413-.635559-2.940491-1.812225-4.670166-.712708-6.348511 4.035523-13.248108 6.675293-20.737732 8.185822 6.321778 2.553406 13.035645 2.179474 19.407288 3.634582 2.918213.666413 5.884888 1.177887 8.739746 2.052735 6.033935 1.848999 7.353149 4.974335 4.629761 10.551239-.788269 1.614227-1.691651 3.172272-2.63739 4.933044.908996.602692 1.517761 1.241242 2.251098 1.457978 16.097962 4.758392 28.121643 15.545532 39.719177 26.908569 5.71222 5.596741 11.247864 11.378479 16.744263 17.189239 5.364868 5.671723 5.42627 9.340851.373779 15.213684-1.404235 1.632233-2.908264 3.349671-4.724243 4.42276-4.551269 2.689606-4.171142 5.592713-1.777832 9.768708 7.123841 12.42987 13.974488 25.013641 21.678345 37.106231 15.279175 23.983735 23.997559 50.820313 33.510376 77.306061 1.913025 5.326233 3.619934 10.726166 5.472961 16.074402 1.359009 3.922363 2.713501 7.653565 6.510804 10.291748 3.348327 2.326294 3.793212 6.614807 3.951477 10.420166.168029 4.039429 1.572021 7.425781 3.760864 10.652222 6.921326 10.202453 14.023804 20.289245 20.679077 30.662781 5.925598 9.236084 4.351563 15.184143-2.184082 24.032898-7.987854 10.81488-17.851196 14.512573-30.979309 13.964111-7.492066-.312866-13.702942-3.66565-20.635681-5.028381-1.70398-.334961-3.092652-1.832215-2.895203-3.652283.914124-8.425842-2.539978-15.980103-4.443725-23.852478-1.530823-6.330384-1.045228-12.62732 1.380065-18.647522 2.54535-6.318115 2.925904-12.195923-1.890747-17.720825-2.603332-2.986084-3.144714-6.822632-2.104004-10.398865 1.060853-3.645569-.099304-6.434387-1.645507-9.447815-7.608338-14.827515-15.644287-29.417999-23.967896-43.854858-8.210632-14.240845-14.726379-29.10904-16.697449-45.654664-.417785-3.506744-1.933715-6.678619-3.768798-9.714019-5.429993-8.981812-10.865662-17.962525-16.109375-27.053131-1.689393-2.928772-3.632325-3.756867-6.945679-3.056397-7.105408 1.502106-9.4646.068329-12.285278-6.746094-1.570801-3.794708-3.074585-7.617187-5.737977-11.372039-1.130371 8.134155-2.533874 16.241424-3.338806 24.407684-2.202392 22.344238 2.347351 43.627167 10.736756 64.227539 4.332153 10.637756 9.086975 21.143097 10.672485 32.65921.666992 4.845215 3.92511 8.390717 5.809082 12.617066 11.324951 25.405731 22.661133 50.806488 33.980591 76.214691 4.12793 9.265686 9.848328 17.807251 12.584412 27.706237.800415 2.895813 1.83258 5.757935-.220948 8.609803-.724182 1.005676-.521667 2.204223-.204406 3.375427 5.945983 21.953857 12.641235 43.642212 27.299804 61.658752 9.987915 12.275879 20.272888 24.296204 29.846497 36.920777 9.663086 12.742554 14.488281 27.674011 20.207031 42.21521 9.38678 23.868103 18.36554 47.898498 27.924316 71.696533 5.734742 14.277405 14.892945 26.761108 22.440491 40.088867 8.636841 15.251282 16.746338 30.672424 21.741577 47.591187 2.220948 7.522155 2.388916 15.091369 1.841797 22.756408-.353821 4.956787-2.987304 8.308106-7.674682 10.114441-3.905213 1.504883-7.825318 2.973694-12.06305 2.927552-13.65039-.148499-27.339294.872619-40.938232-.936951-10.595703-1.409912-14.268372-5.342407-14.524109-16.086182-.257202-10.810058.279175-21.632324.507263-32.438293.445007-21.07721-2.178345-41.479187-13.280151-60.581421-14.278504-24.56836-29.809143-48.125672-47.490723-70.332153-7.892578-9.912293-12.635193-21.537903-16.588989-33.42157-4.593933-13.807862-10.625977-26.538391-22.184876-36.086548-4.590088-3.791565-6.58197-9.564758-9.166992-14.77063-8.023742-16.15863-17.980591-31.158997-27.544617-46.397705-1.948364-3.104431-4.224121-5.317993-8.309326-5.37085-6.164306-.079529-10.251526-3.486084-12.550415-9.07904-8.817871-21.452576-21.808838-40.845215-30.722778-62.253784-.91272-2.192139-1.674255-4.680726-4.561035-6.185486-4.097351 7.611206-6.387879 15.605407-9.414795 23.272583-5.942108 15.051452-10.189057 30.658935-14.118958 46.314087-1.90921 7.605468-5.147888 12.830322-13.516388 13.534668-2.191986.184387-3.642425 1.451904-4.29071 3.616394-4.154694 13.87091-10.042725 27.192566-12.983429 41.455688-.981842 4.762329-1.897614 9.544251-1.528229 14.36322 2.318512 30.246643-4.080688 58.940918-15.14505 86.83429-7.684051 19.371643-13.35614 39.409119-19.706146 59.224548-2.829315 8.828919-2.898071 17.706909-1.150147 26.629151 3.173249 16.197754 3.646821 32.348022.328492 48.594177-1.212555 5.936645-4.493347 9.441589-10.305298 10.79779-7.458313 1.740479-14.872406 3.75232-22.660462 3.056641-2.042389-.182434-4.00653.191345-5.765503 1.273315-14.974884 9.211609-31.570739 8.164002-48.063415 7.485596-6.329804-.260254-12.544403-1.519165-18.6185-3.42865-3.994659-1.255859-6.697967-3.711914-7.640961-7.806335-.970001-4.211609-1.790832-8.460571-2.56845-12.713074-2.279297-12.464966 5.473419-18.630432 15.281982-23.860474m238.424316-663.941085c5.393006-4.965241 9.577942-10.663102 10.656189-18.138321.639099-4.430847-.266906-8.416245-4.524597-10.713913-4.377991-2.362656-7.303161.481491-9.876404 3.426819-4.595581 5.260131-8.952758 10.728592-13.546997 15.989898-1.353088 1.549576-2.949035 3.707215-5.407592 2.488892-2.123719-1.052368-2.723328-3.197769-2.165711-5.593216.224487-.964874.197083-1.986221.317261-2.97789 1.442627-11.907898 2.173279-23.846329 2.075439-35.853653-.032409-3.973526-1.211731-6.223022-5.31604-6.921387-9.999878-1.701507-19.954406-3.670685-29.957275-5.353134-2.033386-.34201-4.262573-.861511-6.375092.316055-.217285 2.495285 1.106385 4.51941 1.957001 6.630417 2.055359 5.100846 4.074463 10.201767 5.310486 15.580399.517151 2.250519 1.809997 4.852753-.042359 6.62793-1.928955 1.848632-4.475921.151702-6.605102-.52388-9.023987-2.863312-17.728302-6.419877-24.866242-13.330216-1.322357 4.355377-2.121582 4.783325-5.668182 2.952118-5.952118-3.073196-9.831879-8.374344-13.905579-13.42804-1.51123-1.874801-2.955596-3.55249-5.7854-2.991409-6.440826 1.277084-11.068787 5.241135-15.006744 10.112991-2.931183 3.626313-.067688 7.315644.390197 10.954178.226716 1.801209.922303 3.538269 1.308167 5.325409 2.767273 12.816391 7.434387 25.220764 8.163239 38.482544.474334 8.630173 5.025115 14.869889 11.849639 19.850006 8.130219 5.932907 16.854798 10.689164 26.231232 14.302567 4.824738 1.859283 9.712036 2.23526 14.674408.722717 16.008453-4.879303 29.361664-14.054932 40.916168-25.898971 3.370667-3.45514 7.078369-7.194123 5.596985-13.00853-.238586-.936386.496216-1.90033 2.086182-2.33046 1.771118 1.202423 4.095459 2.304077 5.789184 4.025956 3.963562 4.029434 7.535401 3.182312 11.727539-.725876m49.203492 463.753219c4.613037 4.54065 9.680053 8.568115 13.280151 14.162903 5.210815 8.0979 8.630798 16.890076 11.304443 26.024475 4.028199 13.762573 10.277161 26.354431 19.304749 37.527527.904419 1.119324 1.502319 2.669861 3.611999 2.730652 10.836365-14.090698 26.508728-18.680237 43.864319-20.235291-3.855835-12.451477-7.969482-23.851501-15.305053-33.756164-10.117981-13.661438-20.568421-27.06427-32.076172-39.605347-3.050598-3.324463-5.927246-6.798645-7.987305-10.832947-5.914185-11.582519-11.317566-23.381042-15.163574-35.84851-1.988465-6.446228-4.207276-12.82135-6.454224-19.629151-16.111145 9.598755-33.66864 13.068848-50.245666 18.628479.179931 2.835449 1.613159 4.325562 2.690918 5.982056 4.906372 7.54071 9.709533 15.152405 14.77716 22.583435 6.87555 10.082092 11.251343 21.555359 18.398255 32.267883m-136.502289-299.300232c-.894013 11.766571-1.41864 23.53415-3.548187 35.219879-1.963868 10.776917-3.255555 21.708344-3.617768 32.718445-.136963 4.163544 1.318207 5.698792 5.47107 5.433411 9.300994-.594299 18.618591-.927216 27.929046-1.374878 5.984497-.28775 11.973511-.513611 17.949829-.92334 2.450989-.16803 5.325074-.223663 5.076111-3.963806-.320434-4.812683-.634643-9.627686-1.078796-14.429901-2.052918-22.196533-4.156739-44.402344-4.548889-66.695435-.265198-15.082489-1.061768-30.210083 1.429626-45.742767-7.158997 2.022186-13.622436 4.017395-20.361145 5.062866-7.234833 1.122437-13.539459-1.907318-20.599121-4.002075-1.383209 19.633087-2.7258 38.690155-4.101776 58.697601m-22.452149 340.942078c1.50647-9.877869 2.627076-19.723328 1.205597-29.77533-.690857-4.885498-.556396-9.914489.490967-14.892395 3.260162-15.495178 8.370575-30.437072 13.213135-45.465088 1.860931-5.775146 1.247589-6.437194-4.896485-7.00354-12.270477-1.131286-24.407409-3.042175-36.199188-6.769409-6.663849-2.106384-6.902923-2.008178-8.243103 4.668823-3.399231 16.935792-6.157989 34.025879-10.261413 50.787842-4.714051 19.256287-7.290802 38.837769-10.554047 58.319641-1.165833 6.9599-.554779 7.496949 6.40152 7.36493 10.670379-.202454 21.347381-.534424 31.371795 4.101196 3.716675 1.718689 7.388245 3.534973 11.381134 5.450989 3.402131-8.577576 4.529877-17.289307 6.090088-26.787659m220.055329-228.93985c1.421203-1.333038.610168-2.732086.142944-4.139191-15.426147-46.460052-34.840088-91.033569-62.168518-131.891418-1.518188-2.269836-2.671448-2.998566-5.12915-1.436279-3.929932 2.498108-7.947632 4.883514-12.071167 7.043579-3.090943 1.619079-3.476441 3.37442-1.67627 6.331878 5.104981 8.38678 10.019348 16.890198 14.961731 25.375123 4.064514 6.977661 6.775635 14.394195 7.649963 22.502868.334595 3.10376 1.281006 6.190735 2.304749 9.162689 5.296875 15.376465 14.429504 28.830567 21.852966 43.140473 5.192139 10.008819 10.736817 19.834717 16.339234 30.138092 5.57843-2.937988 11.415954-4.218201 17.793518-6.227814m-292.656555-86.201507c3.119476 1.159149 6.202209 2.431762 9.365478 3.455627 8.548859 2.767029 12.690643 1.623932 18.486786-5.33786 5.218262-6.26767 10.310059-12.644714 15.319672-19.080902 4.478515-5.753906 8.768768-11.654419 13.342895-17.758118-6.20813-4.901428-12.019073-9.489258-18.173798-14.348511-6.012847 6.623932-10.476898 13.857666-15.324127 20.747956-2.956695 4.20285-5.930938 4.831634-10.56607 3.246704-19.679474-6.729157-39.44632-13.203675-59.203156-19.704529-1.834411-.603638-3.61853-1.79184-6.398559-1.003174-1.453156 7.275025-5.870301 13.456848-11.120392 19.783814 21.009002 11.716461 41.979523 21.346405 64.271271 29.998993m41.100372-260.538483c-6.705231 5.308441-13.410462 10.616867-20.115692 15.925308 2.813751.131729 5.20697-.45076 7.500915-1.301178 11.727478-4.347748 23.841767-7.457596 35.911072-10.553436 29.237427-7.499558 58.513733-6.185928 87.23645 2.470627 10.394226 3.132644 19.183106 2.013641 27.849549-3.742371 1.860656-1.235779 4.811279-1.840881 4.630554-4.648361-.150879-2.345215-2.629395-3.272324-4.499939-4.304108-9.077881-5.007171-18.698242-8.779831-28.569519-11.821396-21.049683-6.485946-42.346039-10.205413-64.409546-5.414993-17.053375 3.702606-31.457398 12.403168-45.533844 23.389908m102.57315 105.596924c-.112976-3.636566-2.145324-2.589936-4.007568-1.568512-6.13501 3.365112-12.321777 6.627838-18.857544 9.151123-7.387146 2.85199-7.406738 2.803131-6.214783 10.743225.123536.823151.349274 1.641022.378205 2.466583.183166 5.230469 1.593658 10.722351-3.823242 14.590119-1.840363 1.314025-.722077 3.06668.457794 4.314514 2.742492 2.900421 5.661499 5.634948 8.381653 8.555267 2.152343 2.310761 4.284729 2.177856 6.559387.358734 4.679809-3.742554 9.294372-7.56839 14.024841-11.2453 4.461243-3.46759 8.610474-6.904022 4.112671-13.156342-.345825-.480652-.204346-1.29898-.330566-1.952362-1.373474-7.108032-.55011-14.283783-.680848-22.257049m-63.849792-148.896157c-4.809418 5.104699-8.075745 11.013085-10.610046 19.197075 22.802703-8.527237 44.707397-9.115295 67.715332-3.730392-2.87024-11.741448-9.504029-18.692993-19.401856-22.287743-13.438568-4.880684-26.13031-3.597595-37.70343 6.82106m70.519287 350.792672c-.68573 3.874023.934937 7.613464.735352 11.422729-.228089 4.355347 1.900024 5.351776 5.783325 5.25943 8.661621-.205872 17.332031-.013824 25.995666-.166321 3.253785-.057251 6.465149 1.725922 9.921326.361786.366577-4.421204-1.11908-8.31607-2.24884-12.272797-1.346558-4.715972-4.457703-6.891235-9.339112-7.648223-7.142456-1.107575-14.26831-1.229493-21.419982-.838349-3.262513.178436-6.728638.262787-9.427735 3.881745m-273.269287-147.553284c-1.368988 1.668579-2.847015 3.261261-4.076172 5.027191-1.217529 1.749237-4.174469 3.645569-1.568481 5.838471 2.614654 2.200195 3.972747 7.19281 9.104156 5.116363 4.648499-1.880981 8.731934-.854645 12.447449 2.412567 2.252594 1.980835 4.69458 3.645508 7.885071 3.919556 6.583832.565491 11.75946-2.3956 13.929321-8.135956 2.181244-5.770508-.348785-13.032379-6.046753-17.355713-1.734283 9.13797-6.873169 13.594605-13.623291 11.814697-5.997803-1.581573-7.358978-6.113647-4.558502-15.853302-5.35202.536622-9.264465 3.442261-13.492798 7.216126m297.489624 32.787384c3.489624-.339844 3.041443-2.952881 2.944763-5.251282-.359314-8.541382.494263-16.942352 2.686402-25.210113 1.828491-6.896118 4.422851-13.447785 9.212707-19.114807-1.224548-.616211-1.784302-1.057282-2.406799-1.180207-1.628235-.32138-3.31836-.367218-4.92096-.771789-2.794189-.705384-4.251342.182953-5.148742 3.01593-4.498352 14.200439-7.043518 28.717132-7.794495 43.589264-.184204 3.647827.933533 5.396789 5.427124 4.923004m-105.475433 138.029053c2.474151-.298676 4.950226-.582154 7.421875-.90033 2.422241-.311829 4.00003-1.473022 4.153991-4.119598.26059-4.47937.603302-8.954224.829468-13.43512.064881-1.285309.237671-2.742828-1.351562-3.432526-1.672364-.725769-11.99878 2.202973-12.394226 3.825592-1.429902 5.867676-3.743256 11.558106-4.321289 17.620942 1.865509.961273 3.366333.570373 5.661743.44104m8.955932-178.384156c-6.765625.309143-10.697815 4.367432-9.655609 10.140717 1.82312 10.098816 3.74112 20.180603 5.641358 30.265381.276794 1.469024.119262 3.232178 2.376983 4.222748.690125-14.989106 1.358704-29.511017 1.637268-44.628846m-131.545013 599.787507c17.660522 3.863525 34.915314 4.371459 51.341003-5.083863 5.452118-3.138428 11.296784-5.61206 18.045471-4.573669 8.148194 1.253662 15.413575-1.6568 22.304474-5.632996 1.576538-.909607 3.190766-2.051758 2.95517-5.022949-6.515472 5.05188-12.905518 9.671326-20.789459 8.488953-9.513947-1.426941-17.621124 1.409118-25.736237 5.62677-12.207123 6.344299-25.075683 8.57611-38.702179 5.595703-6.318512-1.382019-12.701019-2.471314-19.513488-3.781555 2.616485 3.392517 6.207092 3.189819 10.095245 4.383606m349.956543-324.24939c-.396362 1.581543-1.880554 2.759765-1.680115 5.092651 4.269959 1.552368 8.615601 1.059082 13.109497.444641-3.077148-15.522461-8.123108-22.138305-16.898315-22.34198 1.77008 5.466919 6.382324 9.876343 5.468933 16.804688m79.650024 336.046142c14.744019-.809875 17.556092-1.434509 19.327576-3.881897-20.923462-.350219-42.971191 6.799561-62.793213-7.542114 3.401917 4.115601 7.243042 7.292847 12.373779 8.598694 9.898804 2.51947 19.962891 3.296814 31.091858 2.825317m-179.659729-407.154602c-2.970886-6.840637-1.118225-13.394653 2.577027-20.838073-6.045655 3.974975-8.094849 10.659118-6.5448 17.718811 2.411621 10.982971 15.622253 24.30011 26.574768 25.753357-8.859985-6.791748-17.797547-12.202576-22.606995-22.634095m-60.849792-45.126983c-5.468689.274017-10.938294.530914-16.405762.826843-5.464722.295746-10.932007.566895-16.389526.966583-5.200867.380951-10.591309-.559601-15.531159 1.984925 18.912415.312164 37.73758-.230652 56.484589-2.08783-.01239-.570038-.024841-1.140076-.037232-1.710114-2.405212 0-4.810424 0-8.12091.019593m154.79657 111.657989c-2.920472-1.619018-4.990967.765564-7.323548 1.663636-1.749939.673706-3.314026 1.874145-2.257141 4.200866.901795 1.985413 2.352722 3.162415 4.69397 2.945008 3.942505-.366028 6.134155-3.766175 4.886719-8.80951m-396.452027-263.582458c.520996 3.297149 2.730683 3.834778 5.477722 3.199554 2.229157-.515533 3.196015-2.152984 3.247101-4.371399.046814-2.030853-1.200928-3.038452-2.979553-3.325927-2.964569-.479249-5.244415.313507-5.74527 4.497772m-31.749603 19.374084c-.216141-.623901-.369583-1.278839-.660095-1.865936-.909577-1.838379-2.054474-3.504273-4.420746-3.269623-1.151383.114197-2.339432.678711-2.646484 1.940338-.598877 2.460633 1.389709 3.539337 2.926467 4.668091 1.020371.749451 2.325531 1.309143 3.573609 1.504761 1.936035.303528 1.446365-1.243317 1.227249-2.977631m4.908874 3.291382c.232239 1.396393-.430725 2.986847.866364 4.209992 3.300415-6.596955 3.282928-7.879273-.155273-10.284455-1.186432 1.642517-.504578 3.528748-.711091 6.074463m255.148957 202.127319c-.364197.239685-1.070984.635926-1.043305.696534 1.320954 2.890014 5.997162 4.137939 9.324677 2.462097-2.140381-2.142639-5.068909-2.210022-8.281372-3.158631z"/><path d="m459.557068 212.194397c-.627899-4.531311-1.248016-8.631378-1.727814-12.747803-.173004-1.484543-.161224-3.123993 1.861054-3.506744 1.833618-.347046 2.9505.756805 3.33374 2.29068 2.06543 8.267563 6.006378 16.330108 3.273437 25.185425-.514709 1.667724.632843 2.443008 1.139862 3.57608.802826 1.793991.442719 3.231766-1.154022 4.342819-1.230713.856354-2.533447.921585-3.649811-.120834-1.25592-1.172791-1.453949-2.688141-.409881-4.035248 1.053009-1.358612 1.19461-2.510849.377014-4.064819-1.720123-3.269318-2.247803-6.920578-3.043579-10.919556z"/><path d="m532.224915 211.494217c-.79596 2.610168-2.470948 3.874603-4.584412 3.508224-2.370789-.41098-1.694397-2.875946-2.104675-4.540222-1.603089-6.503189-2.3172-13.051224-.781128-19.677261.472473-2.038284.548401-4.305817 3.26532-5.804932 4.293396 8.338455 4.190612 17.220307 4.204895 26.514191z"/><path d="m531.324219 173.528687c4.734314 2.163452 6.849365 5.833053 8.214782 10.116897-2.426208 1.763413-4.015441.444855-5.254089-.714096-4.594238-4.298676-9.102173-4.950973-13.943787-.411148-1.03656.971939-2.368591 1.869095-4.029968 1.417465-1.04248-6.42305 7.496338-12.543625 15.013062-10.409118z"/><path d="m502.923523 246.294281c-4.714111.783813-9.003326.78656-13.280426-.048355-1.50061-.292908-3.114777-.712967-3.060608-2.631943.062256-2.20581 1.92691-1.986954 3.346649-1.914093 7.249909.371979 14.253449-.272232 20.556915-4.360367.997803-.64714 2.229828-1.111297 3.082856.159943.823303 1.226852.540649 2.583221-.289673 3.730133-2.438538 3.368332-6.162445 4.257568-10.355713 5.064682z"/><path d="m456.826996 188.442108c-5.206513-.436981-6.107727 5.002533-9.715759 6.569184-1.70102-6.10846 4.927948-13.184586 11.121978-11.979966 4.619324.898392 8.107544 3.712281 10.677521 7.60257.835266 1.264389 1.529236 2.8022-.123199 3.968124-1.655976 1.168488-2.773072.001953-3.739258-1.230591-2.028382-2.5876-4.631226-4.239028-8.221283-4.929321z"/><path d="m536.442261 218.524628c-2.204102 1.690826-4.170899 3.205459-6.310242 4.414856-2.144775 1.212448-3.141479-.052414-3.112671-2.10228.030396-2.154053 6.679871-6.09874 8.669434-5.178268.99707.461257 1.195556 1.491043.753479 2.865692z"/><path d="m648.086914 699.959229c-2.131897-1.637452-5.18042-1.765625-5.540405-5.196106 3.494751-2.145081 6.725097-.637146 9.617737 1.041198 2.414367 1.400757 1.080383 3.690857.79364 5.467041-2.197937.810791-3.263245-.522278-4.870972-1.312133z"/><path d="m435.356323 699.374878c2.654236-1.827332 4.618592-4.315918 7.977051-3.93866.153839 6.074768-4.78302 10.034424-10.889862 8.878296-.794464-2.488281 1.361359-3.360168 2.912811-4.939636z"/></svg>