<!-- Generated by IcoMoon.io -->
<svg version="1.1" xmlns="http://www.w3.org/2000/svg" width="1200" height="1200" viewBox="0 0 1200 1200">
<title>battle</title>
<path d="M107.979 876.424l159.884 0.94c12.36 0.073 22.457-9.905 22.528-22.264s-9.905-22.457-22.264-22.528l-159.884-0.94c-12.361-0.073-22.457 9.904-22.528 22.264s9.905 22.457 22.264 22.528z"></path>
<path d="M355.27 746.113c-59.839 0-108.425 48.584-108.425 108.425s48.584 108.425 108.425 108.425c59.841 0 108.425-48.584 108.425-108.425s-48.584-108.425-108.425-108.425zM355.27 790.905c35.119 0 63.632 28.512 63.632 63.632s-28.512 63.632-63.632 63.632c-35.119 0-63.632-28.512-63.632-63.632s28.512-63.632 63.632-63.632z"></path>
<path d="M444.47 877.856l151.133-1.85c12.36-0.151 22.273-10.308 22.12-22.669s-10.31-22.273-22.669-22.12l-151.133 1.85c-12.36 0.151-22.273 10.31-22.12 22.67s10.31 22.273 22.669 22.12z"></path>
<path d="M355.27 576.782c-153.296 0-277.753 124.458-277.753 277.753s124.458 277.753 277.753 277.753c153.296 0 277.753-124.458 277.753-277.753s-124.458-277.753-277.753-277.753zM355.27 646.772c114.669 0 207.762 93.096 207.762 207.762s-93.096 207.762-207.762 207.762c-114.667 0-207.762-93.096-207.762-207.762s93.096-207.762 207.762-207.762z"></path>
<path d="M611.275 370.304l159.884 0.94c12.361 0.073 22.457-9.905 22.528-22.264s-9.905-22.457-22.264-22.528l-159.884-0.94c-12.36-0.073-22.457 9.905-22.528 22.264s9.905 22.457 22.264 22.528z"></path>
<path d="M858.57 239.988c-59.841 0-108.425 48.584-108.425 108.425s48.584 108.425 108.425 108.425c59.839 0 108.424-48.584 108.424-108.425s-48.584-108.425-108.424-108.425zM858.57 284.782c35.119 0 63.632 28.512 63.632 63.632s-28.512 63.632-63.632 63.632c-35.119 0-63.632-28.512-63.632-63.632s28.512-63.632 63.632-63.632z"></path>
<path d="M947.768 371.732l151.133-1.85c12.36-0.151 22.273-10.31 22.12-22.669s-10.308-22.273-22.669-22.12l-151.133 1.85c-12.36 0.151-22.273 10.31-22.12 22.669s10.31 22.273 22.67 22.12z"></path>
<path d="M858.57 70.659c-153.296 0-277.753 124.458-277.753 277.753s124.458 277.753 277.753 277.753c153.296 0 277.753-124.458 277.753-277.753s-124.458-277.753-277.753-277.753zM858.57 140.65c114.667 0 207.762 93.096 207.762 207.762s-93.096 207.762-207.762 207.762c-114.669 0-207.762-93.096-207.762-207.762s93.096-207.762 207.762-207.762z"></path>
<path d="M1015.416 550.731l99.885 49.268c0 0-214.785 105.941-214.785 105.941-11.689 5.766-17.296 19.301-13.107 31.643l76.964 226.788c0 0-226.788-76.964-226.788-76.964-12.342-4.188-25.877 1.418-31.643 13.107l-105.941 214.785c0 0-49.734-100.832-49.734-100.832-6.341-12.858-21.928-18.148-34.786-11.805s-18.148 21.928-11.805 34.786l73.030 148.062c4.375 8.869 13.406 14.486 23.297 14.486s18.921-5.616 23.297-14.486l119.161-241.588c0 0 255.089 86.569 255.089 86.569 9.364 3.178 19.723 0.763 26.715-6.229s9.408-17.35 6.229-26.715l-86.569-255.089c61.641-30.404 241.588-119.161 241.588-119.161 8.869-4.375 14.486-13.406 14.486-23.297s-5.616-18.921-14.486-23.297l-147.116-72.565c-12.858-6.341-28.444-1.052-34.786 11.805s-1.052 28.445 11.805 34.786z"></path>
<path d="M199.313 656.531l-114.614-56.532c75.455-37.219 214.785-105.941 214.785-105.941 11.689-5.766 17.296-19.301 13.107-31.643l-76.964-226.788c79.671 27.038 226.788 76.964 226.788 76.964 12.342 4.188 25.877-1.418 31.643-13.107 0 0 68.722-139.329 105.941-214.785 0 0 56.658 114.871 56.658 114.871 6.341 12.858 21.928 18.148 34.786 11.805s18.148-21.928 11.805-34.786l-79.956-162.098c-4.375-8.869-13.406-14.486-23.297-14.486s-18.921 5.616-23.297 14.486l-119.161 241.588c-65.087-22.089-255.089-86.569-255.089-86.569-9.364-3.178-19.723-0.763-26.715 6.229s-9.408 17.35-6.229 26.715l86.569 255.089c0 0-241.588 119.161-241.588 119.161-8.869 4.375-14.486 13.406-14.486 23.297s5.616 18.921 14.486 23.297l161.843 79.829c12.858 6.341 28.444 1.052 34.786-11.805s1.052-28.445-11.805-34.786z"></path>
</svg>
