<!-- Generated by IcoMoon.io -->
<svg version="1.1" xmlns="http://www.w3.org/2000/svg" width="1200" height="1200" viewBox="0 0 1200 1200">
<title>battle-ready</title>
<path d="M599.986 0l-117.144 317.168-307.11-141.437 141.437 307.11-317.168 117.144 317.168 117.144-141.437 307.139 307.11-141.437 117.144 317.168 117.144-317.168 307.11 141.437-141.409-307.139 317.168-117.144-317.168-117.144 141.409-307.11-307.11 141.437-117.144-317.168zM599.986 546.456l63.116 59.705 286.727-3.941-184.907 60.645 89.409 178.141-179.053-73.233-68.321 164.23-68.292-164.23-179.084 73.233 75.498-178.141-184.936-60.645 286.757 3.912 63.087-59.675z"></path>
</svg>
