<!-- Generated by IcoMoon.io -->
<svg version="1.1" xmlns="http://www.w3.org/2000/svg" width="1200" height="1200" viewBox="0 0 1200 1200">
<title>berry</title>
<path d="M713.929 211.609c35.045-45.623 84.901-106.216 132.315-148.457 24.871-22.154 49.424-39.437 71.171-48.888 20.723-9.002 40.044-11.503 56.735-8.454 21.532 3.93 35.81 24.611 31.88 46.129-3.93 21.532-24.611 35.81-46.144 31.88-5.188-0.954-10.709 2.775-17.4 6.359-13.685 7.355-28.369 18.714-43.484 32.183-35.275 31.432-71.952 73.832-101.866 111.302 57.255 6.373 118.328 24.871 174.976 53.238 89.367 44.756 167.129 113.804 203.373 194.384 71.794 159.628-16.62 372.002-232.232 525.793-147.505 111.519-418.826 167.591-634.035 188.169-14.191 1.359-28.007-5-36.2-16.648-124.368-176.723-258.302-419.1-269.675-603.367-23.643-264.169 80.089-469.621 248.071-519 84.771-24.914 187.794-10.811 279.935 27.935 72.487 30.478 137.85 76.013 182.578 127.445zM680.302 332.306l-0.217-0.115c-28.484-16.329-65.074-42.848-106.086-57.949-32.487-11.951-68.398-16.257-104.353 5.882-88.962 54.799-160.771 215.107-185.525 397.958-0.043 0.245-0.071 0.505-0.115 0.765-19.525 125.639 10.579 294.371 45.754 414.36 110.871-50.074 239.934-142.88 325.385-236.783 0.173-0.189 0.362-0.375 0.536-0.564 126.853-133.992 206.624-290.498 193.473-394.143 0 0 0 0 0 0-5.245-41.432-32.4-64.972-61.577-81.592-38.412-21.879-81-33.628-105.625-46.937l-1.648-0.882zM846.056 323.187c40.897 27.861 74.064 67.719 81.78 128.557 15.145 119.44-68.181 303.88-214.153 458.19-58.268 63.975-135.264 127.373-214.269 179.093 150.423-27.718 301.164-73.383 396.239-145.379 0.304-0.245 0.622-0.462 0.939-0.694 92.359-65.781 159.557-142.951 195.526-221.147 33.209-72.227 39.409-144.946 11.040-207.996 0 0 0 0 0 0-29.394-65.363-94.049-119.7-166.566-156-29.336-14.696-60.060-26.474-90.538-34.624zM562.999 188.849c-19.726-11.85-40.71-22.472-62.386-31.576-74.742-31.432-158.068-45.159-226.842-24.943-66.316 19.494-117.517 71.518-150.741 143.732-35.955 78.196-50.825 179.44-40.68 292.377 0.043 0.375 0.071 0.765 0.087 1.155 6.691 110.552 61.866 242.78 131.261 367.017-14.682-92.372-20.564-188.993-8.166-269.182 28.542-210.872 119.932-391.642 222.52-454.823 45.94-28.295 91.709-32.4 134.945-23.757z"></path>
</svg>
