<!-- Generated by IcoMoon.io -->
<svg version="1.1" xmlns="http://www.w3.org/2000/svg" width="1200" height="1200" viewBox="0 0 1200 1200">
<title>box-ball</title>
<path d="M603.503 0c-171.496 0-310.54 139.044-310.54 310.54 0 32.293 4.923 63.444 14.072 92.714l-125.668 64.247-5.464 3.364-5.829 5.208-3.72 4.723-3.026 5.367-2.161 5.644-1.425 7.249-0.196 4.106v413.904c0 14.053 7.365 27.087 19.438 34.334l404.92 242.955 5.443 2.742 7.084 2.141 6.009 0.762h4.143l5.968-0.762 5.706-1.621 6.607-3.123 0.582-0.36 395.906-242.93c11.872-7.286 19.099-20.224 19.099-34.138v-414.027l-0.457-5.947-1.343-5.844-0.582-1.724c-0.701-1.923-1.539-3.763-2.501-5.527l-3.323-5.145-5.006-5.423-4.744-3.683-3.545-2.084-119.582-62.502c9.531-29.809 14.674-61.603 14.674-94.617 0-171.496-139.023-310.54-310.54-310.54zM603.503 58.596c125.331 0 229.277 91.516 248.696 211.338h-124.552c-17.078-52.233-66.205-89.971-124.145-89.971s-107.072 37.739-124.15 89.971h-124.547c19.42-119.822 123.369-211.338 248.696-211.338zM603.503 238.566c24.708 0 46.488 12.432 59.462 31.369 7.908 11.572 12.533 25.549 12.533 40.604 0 6.227-0.804 12.252-2.284 17.998-7.99 31.052-36.177 53.998-69.71 53.998s-61.724-22.944-69.71-53.998c-1.482-5.746-2.264-11.769-2.264-17.998 0-15.055 4.625-29.032 12.533-40.604 12.955-18.939 34.754-31.369 59.441-31.369zM352.181 328.535h121.969c8.77 63.604 63.345 112.594 129.353 112.594 66.011 0 120.582-48.99 129.353-112.594h121.969c-9.231 130.754-118.225 233.961-251.32 233.961s-242.091-103.207-251.32-233.961zM239.63 569.886l324.832 173.239v346.159l-324.832-194.885v-324.513zM960.367 570.606v324.049l-315.823 193.805v-345.577l315.823-172.277z"></path>
</svg>
