<!-- Generated by IcoMoon.io -->
<svg version="1.1" xmlns="http://www.w3.org/2000/svg" width="1200" height="1200" viewBox="0 0 1200 1200">
<title>box</title>
<path d="M620.127 5.394c-12.456-7.193-27.804-7.193-40.26 0l-484.751 279.872c-12.456 7.188-20.127 20.48-20.127 34.864v559.738c0 14.386 7.671 27.677 20.127 34.864l484.751 279.872c12.456 7.193 27.804 7.193 40.26 0l484.751-279.872c12.456-7.188 20.132-20.48 20.132-34.864v-559.738c0-14.386-7.676-27.677-20.132-34.864l-484.751-279.872zM600 86.745l444.491 256.627c0 0 0 513.258 0 513.258s-444.491 256.627-444.491 256.627c0 0-444.496-256.627-444.496-256.627s0-513.258 0-513.258l444.496-256.627z"></path>
<path d="M594.45 572.486l-441.063-278.613c-18.784-11.864-43.668-6.248-55.532 12.536-11.869 18.784-6.248 43.668 12.536 55.536l443.66 280.256 4.939 505.474c0.216 22.23 18.418 40.080 40.649 39.86l2.071-0.070c21.264-1.287 38.002-19.038 37.794-40.579l-4.93-504.563 471.163-287.838c18.963-11.583 24.949-36.381 13.366-55.344-11.583-18.959-36.381-24.949-55.339-13.366l-469.314 286.712z"></path>
</svg>
