<!-- Generated by IcoMoon.io -->
<svg version="1.1" xmlns="http://www.w3.org/2000/svg" width="1200" height="1200" viewBox="0 0 1200 1200">
<title>dynamax</title>
<path d="M909.506 690.766c176.671 176.142 290.494 328.816 290.494 328.816-217.983-94.447-402.459-62.674-402.459-62.674s-17.718-34.763-51.565-90.786l163.529-175.356zM454.882 538.132l123.361 141.823c-113.695 155.177-175.796 276.952-175.796 276.952s-184.48-31.773-402.445 62.674c0 0 187.567-251.597 454.881-481.448zM723.513 829.683c-13.186-20.992-28.084-43.972-44.616-68.467l143.625-154.021c19.761 18.274 38.966 36.52 57.557 54.595l-156.566 167.889zM745.034 538.061c15.959 13.713 31.63 27.512 46.99 41.326l-137.061 146.971c-11.612-16.602-23.879-33.734-36.807-51.292l126.88-137.004zM480.323 504.571c-104.358-117.285-232.138-235.426-379.71-324.155 151.275 29.872 301.691 105.686 440.538 200.263l58.843-200.263 58.856 200.263c138.846-94.576 289.25-170.393 440.525-200.263-148.857 89.5-277.582 208.956-382.454 327.245l-120.574 130.212-109.934-126.435c-0.915-1.045-1.846-2.087-2.775-3.131l-3.275-3.761-0.042 0.028z"></path>
</svg>
