<!-- Generated by IcoMoon.io -->
<svg version="1.1" xmlns="http://www.w3.org/2000/svg" width="1200" height="1200" viewBox="0 0 1200 1200">
<title>male</title>
<path d="M1060.642 0h-407.114v128.454h337.345l-445.281 445.691c-53.689-37.25-120.23-59.508-191.971-59.508-0.177 0-0.356 0-0.534 0h0.027c-189.053 0.27-342.206 153.591-342.206 342.681 0 189.258 153.423 342.681 342.681 342.681s342.681-153.423 342.681-342.681c0-71.858-22.118-138.551-59.917-193.642l0.756 1.166 423.53-423.94v295.076h128.454v-535.978zM353.116 1076.88c-121.034 0-219.151-98.118-219.151-219.151s98.118-219.151 219.151-219.151c121.034 0 219.151 98.118 219.151 219.151v0c0 121.034-98.118 219.151-219.151 219.151v0z"></path>
</svg>
