<!-- Generated by IcoMoon.io -->
<svg version="1.1" xmlns="http://www.w3.org/2000/svg" width="1200" height="1200" viewBox="0 0 1200 1200">
<title>mark-star</title>
<path d="M638.284 57.369c-7.4-14.312-22.167-23.298-38.286-23.298s-30.886 8.986-38.286 23.298l-165.555 320.050c0 0-359.735 56.572-359.735 56.572-16.072 2.529-29.347 13.873-34.343 29.347-4.98 15.49-0.848 32.457 10.714 43.894l257.037 254.161c0 0-56.573 354.628-56.573 354.628-2.544 15.977 4.054 32.033 17.108 41.585 13.039 9.552 30.336 10.997 44.79 3.739l324.843-163.025c0 0 324.843 163.025 324.843 163.025 14.454 7.259 31.751 5.814 44.805-3.739 13.039-9.552 19.654-25.608 17.093-41.585l-56.573-354.628c0 0 257.037-254.161 257.037-254.161 11.563-11.436 15.71-28.404 10.714-43.894-4.996-15.475-18.271-26.817-34.328-29.347l-359.735-56.572c0 0-165.571-320.050-165.571-320.050z"></path>
</svg>
