<!-- Generated by IcoMoon.io -->
<svg version="1.1" xmlns="http://www.w3.org/2000/svg" width="1200" height="1200" viewBox="0 0 1200 1200">
<title>move-special</title>
<path d="M489.124 251.857c-325.395 103.634-539.896 343.768-478.698 535.914 61.193 192.146 375.056 264.007 700.451 160.372s539.896-343.768 478.698-535.914c-61.193-192.146-375.056-264.007-700.451-160.372zM512.756 326.057c175.862-56.007 347.937-57.584 469.403-10.516 65.445 25.356 115.399 64.372 133.219 120.321s-0.373 116.666-39.097 175.204c-71.879 108.637-213.171 206.868-389.033 262.876s-347.937 57.584-469.403 10.521c-65.445-25.361-115.395-64.372-133.219-120.326-17.818-55.949 0.373-116.666 39.097-175.199 71.879-108.642 213.171-206.868 389.033-262.881z"></path>
<path d="M529.99 385.946c-205.623 65.49-341.216 217.089-302.604 338.332 38.617 121.243 236.906 166.513 442.534 101.023 205.623-65.49 341.216-217.089 302.599-338.332-38.612-121.243-236.906-166.513-442.529-101.023zM553.621 460.15c104.019-33.131 205.759-35.114 277.584-7.346 32.318 12.497 58.324 30.202 67.116 57.797 8.787 27.595-2.193 57.080-21.329 85.959-42.536 64.196-126.688 121.412-230.707 154.538-104.019 33.131-205.755 35.114-277.58 7.346-32.318-12.497-58.329-30.202-67.116-57.797-8.791-27.595 2.189-57.080 21.329-85.964 42.536-64.192 126.683-121.407 230.702-154.533z"></path>
<path d="M575.844 502.931c-90.555 28.84-149.797 97.082-132.21 152.299 17.583 55.213 105.381 76.629 195.938 47.789s149.797-97.086 132.214-152.299c-17.587-55.218-105.381-76.632-195.942-47.789zM694.221 575.418c-1.866 3.356-4.424 7.552-6.798 10.289-15.912 18.328-41.381 33.521-71.483 43.106s-59.673 11.924-83.249 6.171c-3.524-0.858-8.033-2.807-11.497-4.46 1.87-3.352 4.424-7.552 6.798-10.289 15.912-18.328 41.386-33.521 71.488-43.106s59.668-11.919 83.249-6.171c3.519 0.858 8.029 2.807 11.493 4.46z"></path>
</svg>
