<!-- Generated by IcoMoon.io -->
<svg version="1.1" xmlns="http://www.w3.org/2000/svg" width="1200" height="1200" viewBox="0 0 1200 1200">
<title>move-other</title>
<path d="M455.325 236.455c-321.312 127.868-517.355 394.575-437.507 595.222 79.843 200.646 405.537 259.737 726.853 131.869s517.359-394.58 437.511-595.227c-79.848-200.646-405.541-259.732-726.858-131.864zM688.125 256.907c-41.591 36.969-88.159 87.272-112.143 142.999l-3.282 8.029-2.057 5.532-2.716 8.136-2.364 8.207-2.58 11.099-2.071 12.867-0.915 10.212-0.254 8.409 0.212 8.438 0.693 8.461 1.528 10.338 1.83 8.486 2.373 8.495 3.477 9.923 3.806 8.933 4.23 8.481 4.848 8.47 5.486 8.452c12.816 18.63 24.008 37.177 33.38 55.52 4.085 7.991 7.825 15.933 11.202 23.832l1.355 3.212c4.645 11.16 8.561 22.225 11.712 33.168l2.278 8.409 0.84 3.434c24.691 103.616-22.536 194.623-181.191 248.189-14.503 4.896-26.295 9.381-35.619 13.461-69.848 2.288-134.745-6.189-190.595-25.112-70.032-23.729-124.968-63.802-148.611-123.223-23.645-59.416-11.263-126.279 23.314-191.637 62.684-118.492 196.447-229.875 368.945-298.521 68.434-27.234 137.057-45.393 202.891-54.703z"></path>
</svg>
