<!-- Generated by IcoMoon.io -->
<svg version="1.1" xmlns="http://www.w3.org/2000/svg" width="1200" height="1200" viewBox="0 0 1200 1200">
<title>move-physical</title>
<path d="M569.502 355.682l-208.532-56.488c-13.034-3.529-26.971-0.551-37.427 7.992-10.452 8.55-16.138 21.616-15.27 35.089l9.223 142.894-0.947 0.537c-0.039 0.025-285.109 73.182-285.109 73.182-18.177 4.664-31.025 20.865-31.43 39.628-0.404 18.768 11.735 35.505 29.699 40.945l190.413 57.688-178.975 139.777c-15.489 12.097-20.47 33.348-11.975 51.071 8.501 17.723 28.189 27.141 47.324 22.632l277.336-65.314 9.604 142.781c1.063 15.786 10.941 29.62 25.521 35.76 14.585 6.134 31.382 3.518 43.411-6.758l206.883-176.769c0.41-0.356 0.819-0.717 1.214-1.083 1.327-1.229 2.909-2.299 4.567-3.055l212.357 67.672c13.673 4.357 28.625 1.4 39.614-7.827 10.989-9.233 16.479-23.452 14.551-37.671l-22.413-165.008 278.824-67.238c18.060-4.352 31.084-20.089 31.987-38.648 0.902-18.553-10.54-35.481-28.087-41.561l-171.436-59.43 147.178-145.88c13.712-13.59 16.348-34.798 6.379-51.329-9.974-16.528-29.961-24.091-48.377-18.304l-263.541 82.829 6.821-137.004c0.824-16.553-8.202-32.031-23.013-39.472-14.809-7.437-32.617-5.432-45.402 5.114l-204.295 168.507c-0.605 0.498-1.2 1.015-1.777 1.552-1.414 1.308-3.118 2.435-4.898 3.191zM819.72 804.034l-155.249-49.466c-0.4-0.127-0.805-0.248-1.209-0.366-11.903-3.396-27.927-3.45-44.835 2.543-12.229 4.338-24.345 11.589-34.129 20.461 0.073-0.059-142.958 122.149-142.958 122.149s-6.187-91.998-6.187-91.998c-0.347-22.427-12.336-39.833-34.685-48.138-11.467-4.26-27.239-5.446-44.415-0.39 0.205-0.059-113.006 26.605-113.006 26.605s65.712-51.315 65.712-51.315c1.693-1.327 3.284-2.777 4.758-4.348 12.736-13.575 18.826-28.806 19.997-41.341 2.279-24.326-8.784-43.001-30.108-53.024-1.835-0.859-3.723-1.586-5.661-2.171l-100.582-30.473c0 0 143.43-36.813 143.43-36.813 1.684-0.429 3.338-0.966 4.952-1.604 12.526-4.938 24.633-12.848 34.045-22.184 12.742-12.629 19.651-27.082 21.754-39.282 0.557-3.236 0.731-6.53 0.521-9.809l-6.314-97.805c0 0 156.513 42.396 156.513 42.396 11.854 3.274 27.677 3.25 44.372-2.67 12.112-4.294 24.11-11.442 33.841-20.202-0.083 0.073 130.309-107.476 130.309-107.476s-4.181 84.063-4.181 84.063c-0.029 0.557-0.049 1.112-0.054 1.669-0.23 23.564 11.795 41.633 34.699 50.145 11.8 4.382 28.166 5.515 45.923-0.073-0.005 0.005 129.342-40.648 129.342-40.648s-50.984 50.535-50.984 50.535c-0.356 0.352-0.708 0.713-1.054 1.083-12.742 13.575-18.826 28.806-19.997 41.341-2.279 24.33 8.78 43.001 30.108 53.024 1.331 0.625 2.699 1.18 4.089 1.663l81.096 28.112c0 0-143.924 34.699-143.924 34.699-1.884 0.454-3.738 1.039-5.544 1.752-12.526 4.943-24.633 12.848-34.045 22.184-12.742 12.629-19.651 27.088-21.754 39.282-0.727 4.211-0.805 8.511-0.23 12.746l15.64 115.147zM351.563 811.338l-0.079-2.801c-0.009 0.952 0.014 1.884 0.079 2.801zM570.131 355.852c1.684 0.020 3.216 0.853 4.454 1.209-0.18-0.054-0.366-0.102-0.551-0.151l-3.904-1.058z"></path>
</svg>
