<!-- Generated by IcoMoon.io -->
<svg version="1.1" xmlns="http://www.w3.org/2000/svg" width="1200" height="1200" viewBox="0 0 1200 1200">
<title>moveset</title>
<path d="M103.303 524.59h169.178l127.535-61.798c7.057-3.418 12.927-8.879 16.845-15.668 3.922-6.79 5.714-14.606 5.15-22.425 0 0-17.719-244.302-17.719-244.302s202.711 137.495 202.711 137.495c6.493 4.4 14.154 6.756 21.994 6.756 7.846 0 15.505-2.355 21.994-6.756 0 0 202.711-137.495 202.711-137.495s-17.715 244.302-17.715 244.302c-0.568 7.819 1.227 15.635 5.146 22.425 3.922 6.79 9.791 12.25 16.849 15.668 0 0 220.431 106.807 220.431 106.807s-220.431 106.807-220.431 106.807c-7.057 3.423-12.927 8.879-16.849 15.674-3.919 6.79-5.714 14.6-5.146 22.425 0 0 17.814 245.654 17.814 245.654s-187.31-123.204-187.31-123.204c-5.675-3.732-12.009-5.696-18.339-6.020v82.345l227.6 149.698c11.742 7.725 26.851 8.113 38.972 0.995 12.124-7.113 19.157-20.491 18.141-34.511l-21.529-296.851 267.846-129.784c12.732-6.17 20.818-19.076 20.818-33.227 0-14.148-8.086-27.054-20.818-33.224l-267.846-129.784 21.529-296.851c1.020-14.114-6.11-27.571-18.366-34.645s-27.476-6.524-39.188 1.417l-246.318 167.067-246.318-167.067c-11.707-7.939-26.929-8.491-39.184-1.417s-19.389 20.53-18.366 34.645l21.525 296.851-241.318 116.931c-0.693 0.336-1.373 0.693-2.037 1.068z"></path>
<path d="M598.352 730.784v263.782c0 74.716-60.566 135.286-135.286 135.286h-327.779c-74.716 0-135.286-60.571-135.286-135.286v-263.782c0-74.716 60.571-135.286 135.286-135.286 93.727 0 234.059 0 327.779 0 74.72 0 135.286 60.571 135.286 135.286zM524.511 958.888l-312.266-1.111c-11.024-0.039-21.456-5.004-28.44-13.533-6.98-8.53-9.788-19.738-7.648-30.55 0 0 11.914-51.461-29.021-71.952-1.034-0.517-28.079-14.79-73.29-4.431v157.255c0 33.934 27.51 61.445 61.44 61.445h327.779c33.934 0 61.445-27.51 61.445-61.445v-35.679zM524.511 885.041v-154.257c0-33.934-27.51-61.44-61.445-61.44h-327.779c-33.93 0-61.44 27.506-61.44 61.44v31.303c65.863-10.459 104.748 12.823 106.346 13.623 51.36 25.711 66.086 73.212 69.431 108.357l274.887 0.974z"></path>
</svg>
