<!-- Generated by IcoMoon.io -->
<svg version="1.1" xmlns="http://www.w3.org/2000/svg" width="1200" height="1200" viewBox="0 0 1200 1200">
<title>mt-disc</title>
<path d="M827.727 18.689v0c-85.485-33.486-182.786-21.285-277.228 31.085-126.688 70.245-249.648 214.959-323.705 404.025-74.068 189.050-82.131 378.778-36.87 516.383 33.735 102.586 96.845 177.636 182.344 211.123 85.498 33.5 182.786 21.285 277.228-31.085 126.688-70.245 249.648-214.959 323.719-404.011 74.055-189.066 82.117-378.793 36.87-516.398-33.749-102.586-96.859-177.636-182.357-211.123v0zM793.384 124.754v0c-2.292 0-4.569-0.429-6.709-1.256 56.167 22.003 94.318 74.084 116.473 141.485 38.609 117.356 28.421 278.925-34.744 440.162s-165.449 286.724-273.487 346.644c-62.047 34.398-125.432 46.725-181.598 24.722-56.153-22.003-94.305-74.096-116.473-141.499-38.595-117.356-28.421-278.925 34.744-440.162 63.178-161.237 165.449-286.724 273.488-346.644 62.047-34.398 125.432-46.711 181.598-24.708 2.139 0.829 4.417 1.256 6.709 1.256zM809.947 114.388v0c-3.244 6.35-9.428 10.214-16.564 10.366-0.275 0.014 0.553 0 0.829-0.014 0.553-0.027 1.091-0.069 1.629-0.138 1.588-0.221 3.132-0.635 4.611-1.256 4.196-1.739 7.439-4.955 9.497-8.959z"></path>
<path d="M678.953 404.632c-63.123-24.736-147.462 39.686-188.237 143.748s-22.624 208.638 40.499 233.36c63.123 24.736 147.476-39.686 188.237-143.748 40.775-104.064 22.624-208.638-40.499-233.36zM634.327 517.391c27.179 10.643 34.992 55.656 17.448 100.461-17.558 44.805-53.875 72.537-81.040 61.88-27.179-10.643-34.992-55.656-17.434-100.461 17.544-44.791 53.861-72.523 81.026-61.88z"></path>
</svg>
