<!-- Generated by IcoMoon.io -->
<svg version="1.1" xmlns="http://www.w3.org/2000/svg" width="1200" height="1200" viewBox="0 0 1200 1200">
<title>notes</title>
<path d="M654.668 179.65l70.431-154.472c9.851-21.611 35.358-31.145 56.97-21.291l241.945 110.307c21.611 9.855 31.145 35.358 21.291 56.97l-57.376 125.841c2.337 10.548 3.54 21.396 3.54 32.37 0 179.81 0 541.096 0 720.906 0 39.711-15.773 77.793-43.848 105.873-28.080 28.076-66.163 43.848-105.873 43.848h-541.211c-39.711 0-77.793-15.773-105.868-43.848-28.080-28.080-43.854-66.163-43.854-105.873v-720.906c0-39.711 15.773-77.793 43.854-105.873 28.076-28.076 66.158-43.848 105.868-43.848h354.134zM615.452 265.657h-314.918c-16.896 0-33.101 6.711-45.053 18.662-11.946 11.946-18.662 28.151-18.662 45.053v720.906c0 16.896 6.716 33.105 18.662 45.053 11.951 11.946 28.157 18.662 45.053 18.662h541.211c16.896 0 33.105-6.716 45.053-18.662s18.662-28.157 18.662-45.053v-572.386l-144.973 317.967c-5.036 11.048-14.163 18.942-24.766 22.699l-242.186 151.017c0 0-39.069-202.133-56.433-291.957-0.312-1.61-0.441-3.234-0.401-4.84-0.907-7.563 0.19-15.466 3.58-22.905l175.171-384.216zM721.669 240.028l-185.287 406.393c0 0 163.685 74.629 163.685 74.629l249.137-546.437-163.685-74.629-63.851 140.044z"></path>
</svg>
