<!-- Generated by IcoMoon.io -->
<svg version="1.1" xmlns="http://www.w3.org/2000/svg" width="1200" height="1200" viewBox="0 0 1200 1200">
<title>origin-paldea</title>
<path d="M600 0c-6.091 0-11.469 3.398-13.262 8.382l-95.934 230.507-131.885 96.95-218.456-49.759c-5.76-1.373-11.899 0.566-15.237 4.814s-3.122 9.847 0.534 13.9l163.897 201.95v198.291l-163.767 195.491c-3.805 4.084-4.050 9.817-0.601 14.126s9.782 6.184 15.605 4.621l215.466-61.196 127.664 91.514 102.746 242.118c1.825 4.93 7.177 8.29 13.228 8.29s11.406-3.357 13.23-8.29l102.746-242.118 125.854-85.409 217.363 55.114c5.852 1.536 12.19-0.394 15.596-4.748s3.081-10.105-0.806-14.156l-169.185-195.452v-198.1c0 0.001 169.317-201.912 169.317-201.912 3.738-4.021 4.035-9.643 0.737-13.935s-9.448-6.281-15.239-4.931l-224.037 49.808-126.379-96.981-95.936-230.507c-1.793-4.984-7.174-8.382-13.263-8.382zM600 264.78l222.608 149.795v370.85l-222.608 149.797-222.606-149.797v-370.85l222.606-149.795zM600 321.011l-172.45 112.84v329.784l172.45 115.356 172.451-112.842v-332.302l-172.451-112.84zM600 445.084l80.561 66.9v176.033l-80.561 66.9-80.558-66.9v-176.033l80.558-66.9z"></path>
</svg>
