<!-- Generated by IcoMoon.io -->
<svg version="1.1" xmlns="http://www.w3.org/2000/svg" width="1200" height="1200" viewBox="0 0 1200 1200">
<title>poke-dollar</title>
<path d="M79.4 1079.671v-140.79h124.419v-117.872h-124.419v-140.79h124.419v-680.218h581.174q139.973 0 237.79 79.809t97.818 201.773-97.818 201.773-237.79 79.809h-422.373v117.054h541.882v140.79h-541.882v117.872h541.882v140.79h-541.882v120.328h-158.798v-120.328h-124.419zM362.62 422.372h422.373q33.561 0 73.671-13.915 28.649-10.641 57.3-33.561 45.020-40.929 45.020-93.315 0-54.025-45.020-94.133-28.649-22.92-57.3-33.561-37.654-13.097-73.671-13.097h-422.373v281.582z"></path>
</svg>
