<!-- Generated by IcoMoon.io -->
<svg version="1.1" xmlns="http://www.w3.org/2000/svg" width="1200" height="1200" viewBox="0 0 1200 1200">
<title>pokerus</title>
<path d="M600.014 0c-0.005 0-0.008 0-0.013 0-331.372 0-600.001 268.629-600.001 599.999 0 0.006 0 0.012 0 0.018v-0.001c0.007 331.364 268.634 599.985 600.001 599.985 0.005 0 0.009 0 0.014 0h-0.001c331.359-0.009 599.978-268.627 599.985-599.985v0c0-0.005 0-0.009 0-0.015 0-331.365-268.622-599.989-599.985-599.999v0zM822.152 282.203c37.664 0 68.204 30.54 68.204 68.204v221.456c0 37.678-30.54 68.204-68.204 68.204s-68.204-30.526-68.204-68.204v-221.456c0-37.664 30.54-68.204 68.204-68.204zM374.029 283.978c37.664 0 68.204 30.54 68.204 68.204v221.456c0 37.678-30.54 68.204-68.204 68.204s-68.204-30.526-68.204-68.204v-221.456c0-37.664 30.54-68.204 68.204-68.204zM422.548 793.911h347.771v136.409h-347.771v-136.409z"></path>
</svg>
