<?xml version="1.0" encoding="UTF-8" standalone="no"?>
<!DOCTYPE svg PUBLIC "-//W3C//DTD SVG 1.1//EN" "http://www.w3.org/Graphics/SVG/1.1/DTD/svg11.dtd">
<svg width="100%" height="100%" viewBox="0 0 1200 1200" version="1.1" xmlns="http://www.w3.org/2000/svg" xmlns:xlink="http://www.w3.org/1999/xlink" xml:space="preserve" xmlns:serif="http://www.serif.com/" style="fill-rule:evenodd;clip-rule:evenodd;stroke-linejoin:round;stroke-miterlimit:2;">
    <g transform="matrix(1.13664,0,0,1.13664,-115.72,-126.274)">
        <g transform="matrix(0.410511,-0.109996,0.109996,0.410511,25.1599,725.33)">
            <path d="M281.603,0.066C277.315,0.298 273.047,1.121 268.866,2.542C252.139,8.233 239.917,22.744 237.169,40.194L178.464,413.744C90.768,486.011 39.323,580.435 39.323,682.562C39.323,835.352 156.397,972.035 334.912,1041.19C334.897,1041.18 431.86,1179.71 431.86,1179.71C440.766,1192.42 455.32,1200 470.84,1200C486.374,1200 500.913,1192.42 509.82,1179.71L573.597,1088.63C582.338,1088.92 591.126,1089.08 599.986,1089.08C607.534,1089.08 615.04,1088.96 622.513,1088.75L686.201,1179.71C695.107,1192.42 709.661,1200 725.181,1200C740.701,1200 755.254,1192.42 764.161,1179.71L859.693,1043.26C1041.18,974.779 1160.68,836.863 1160.68,682.563C1160.68,579.109 1107.87,483.559 1018.06,410.943L959.766,40.197C957.019,22.745 944.856,8.235 928.129,2.545C911.388,-3.146 892.87,0.903 880.039,13.071L602.436,276.08L594.565,276.109C594.58,276.109 316.93,13.072 316.93,13.072C307.307,3.947 294.471,-0.628 281.607,0.069L281.603,0.066ZM365.783,506.358C428.926,507.089 491.333,554.81 517.042,628.368C548.684,718.901 512.847,814.476 437.078,841.663C361.294,868.853 274.089,817.425 242.446,726.907C210.804,636.374 246.625,540.784 322.41,513.612C336.619,508.514 351.211,506.191 365.783,506.358ZM834.157,506.74C848.729,506.571 863.351,508.926 877.56,514.023C953.344,541.196 989.166,636.757 957.524,727.29C925.882,817.808 838.675,869.236 762.892,842.046C687.123,814.856 651.286,719.312 682.928,628.779C708.637,555.22 771.014,507.471 834.157,506.74Z" style="fill-rule:nonzero;stroke:black;stroke-width:31.05px;"/>
        </g>
        <g transform="matrix(0.508221,0,0,0.508221,326.533,111.095)">
            <path d="M281.603,0.066C277.315,0.298 273.047,1.121 268.866,2.542C252.139,8.233 239.917,22.744 237.169,40.194L178.464,413.744C90.768,486.011 39.323,580.435 39.323,682.562C39.323,835.352 156.397,972.035 334.912,1041.19C334.897,1041.18 431.86,1179.71 431.86,1179.71C440.766,1192.42 455.32,1200 470.84,1200C486.374,1200 500.913,1192.42 509.82,1179.71L573.597,1088.63C582.338,1088.92 591.126,1089.08 599.986,1089.08C607.534,1089.08 615.04,1088.96 622.513,1088.75L686.201,1179.71C695.107,1192.42 709.661,1200 725.181,1200C740.701,1200 755.254,1192.42 764.161,1179.71L859.693,1043.26C1041.18,974.779 1160.68,836.863 1160.68,682.563C1160.68,579.109 1107.87,483.559 1018.06,410.943L959.766,40.197C957.019,22.745 944.856,8.235 928.129,2.545C911.388,-3.146 892.87,0.903 880.039,13.071L602.436,276.08L594.565,276.109C594.58,276.109 316.93,13.072 316.93,13.072C307.307,3.947 294.471,-0.628 281.607,0.069L281.603,0.066ZM365.783,506.358C428.926,507.089 491.333,554.81 517.042,628.368C548.684,718.901 512.847,814.476 437.078,841.663C361.294,868.853 274.089,817.425 242.446,726.907C210.804,636.374 246.625,540.784 322.41,513.612C336.619,508.514 351.211,506.191 365.783,506.358ZM834.157,506.74C848.729,506.571 863.351,508.926 877.56,514.023C953.344,541.196 989.166,636.757 957.524,727.29C925.882,817.808 838.675,869.236 762.892,842.046C687.123,814.856 651.286,719.312 682.928,628.779C708.637,555.22 771.014,507.471 834.157,506.74Z" style="fill-rule:nonzero;"/>
        </g>
        <g transform="matrix(0.404265,0.108322,-0.108322,0.404265,747.767,602.492)">
            <path d="M281.603,0.066C277.315,0.298 273.047,1.121 268.866,2.542C252.139,8.233 239.917,22.744 237.169,40.194L178.464,413.744C90.768,486.011 39.323,580.435 39.323,682.562C39.323,835.352 156.397,972.035 334.912,1041.19C334.897,1041.18 431.86,1179.71 431.86,1179.71C440.766,1192.42 455.32,1200 470.84,1200C486.374,1200 500.913,1192.42 509.82,1179.71L573.597,1088.63C582.338,1088.92 591.126,1089.08 599.986,1089.08C607.534,1089.08 615.04,1088.96 622.513,1088.75L686.201,1179.71C695.107,1192.42 709.661,1200 725.181,1200C740.701,1200 755.254,1192.42 764.161,1179.71L859.693,1043.26C1041.18,974.779 1160.68,836.863 1160.68,682.563C1160.68,579.109 1107.87,483.559 1018.06,410.943L959.766,40.197C957.019,22.745 944.856,8.235 928.129,2.545C911.388,-3.146 892.87,0.903 880.039,13.071L602.436,276.08L594.565,276.109C594.58,276.109 316.93,13.072 316.93,13.072C307.307,3.947 294.471,-0.628 281.607,0.069L281.603,0.066ZM365.783,506.358C428.926,507.089 491.333,554.81 517.042,628.368C548.684,718.901 512.847,814.476 437.078,841.663C361.294,868.853 274.089,817.425 242.446,726.907C210.804,636.374 246.625,540.784 322.41,513.612C336.619,508.514 351.211,506.191 365.783,506.358ZM834.157,506.74C848.729,506.571 863.351,508.926 877.56,514.023C953.344,541.196 989.166,636.757 957.524,727.29C925.882,817.808 838.675,869.236 762.892,842.046C687.123,814.856 651.286,719.312 682.928,628.779C708.637,555.22 771.014,507.471 834.157,506.74Z" style="fill-rule:nonzero;stroke:black;stroke-width:31.53px;"/>
        </g>
    </g>
</svg>
