<!-- Generated by IcoMoon.io -->
<svg version="1.1" xmlns="http://www.w3.org/2000/svg" width="1200" height="1200" viewBox="0 0 1200 1200">
<title>pokedex-rotom</title>
<path d="M743.23 455.051c-4.852-10.215-16.957-14.551-27.116-9.727-51.489 24.454-196.834 93.482-248.323 117.935-10.159 4.825-14.563 17.002-9.711 27.217 2.358 4.965 5.053 10.642 7.412 15.607 4.852 10.215 17.072 14.497 27.231 9.671 51.489-24.454 196.834-93.482 248.323-117.935 10.159-4.825 14.448-16.946 9.596-27.162-2.358-4.965-5.053-10.642-7.412-15.607z"></path>
<path d="M419.054 618.521c11.248 23.681 1.167 51.997-22.515 63.245s-51.997 1.167-63.245-22.515c-11.248-23.681-1.167-51.997 22.515-63.245s51.997-1.167 63.245 22.515z"></path>
<path d="M806.264 584.439c-4.852-10.215-16.957-14.551-27.116-9.727-51.489 24.454-196.834 93.482-248.323 117.935-10.159 4.825-14.563 17.002-9.711 27.217 2.358 4.965 5.053 10.642 7.412 15.607 4.852 10.215 17.072 14.497 27.231 9.671 51.489-24.454 196.834-93.482 248.323-117.935 10.159-4.825 14.448-16.946 9.596-27.162-2.358-4.965-5.053-10.642-7.412-15.607z"></path>
<path d="M482.102 747.909c11.248 23.681 1.167 51.997-22.515 63.245s-51.997 1.167-63.245-22.515c-11.248-23.681-1.167-51.997 22.515-63.245s51.997-1.167 63.245 22.515z"></path>
<path d="M866.579 716.75c-4.852-10.215-16.957-14.551-27.116-9.727-51.489 24.454-196.834 93.482-248.323 117.935-10.159 4.825-14.563 17.002-9.711 27.217 2.358 4.965 5.053 10.642 7.412 15.607 4.852 10.215 17.072 14.497 27.231 9.671 51.489-24.454 196.834-93.482 248.323-117.935 10.159-4.825 14.448-16.946 9.596-27.162-2.358-4.965-5.053-10.642-7.412-15.607z"></path>
<path d="M542.404 880.221c11.248 23.681 1.167 51.997-22.515 63.245s-51.997 1.167-63.245-22.515c-11.248-23.681-1.167-51.997 22.515-63.245s51.997-1.167 63.245 22.515z"></path>
<path d="M375.095 142.079l-52.349 9.975c-11.832 2.255-22.123 9.511-28.218 19.896-6.108 10.398-7.42 22.915-3.621 34.352l0.123 0.328 36.17 183.648c0 0-199.828 93.737-199.828 93.737-102.729 48.195-146.934 170.53-98.753 273.26 46.705 99.545 105.531 224.943 152.222 324.473 48.195 102.729 170.546 146.946 273.261 98.753 0 0 198.408-93.082 198.408-93.082l124.346 93.559c17.272 12.981 40.282 15.373 59.85 6.217s32.481-28.368 33.573-49.944l7.87-155.678c0 0 194.471-91.236 194.471-91.236 102.729-48.195 146.946-170.53 98.753-273.26-46.691-99.545-105.517-224.943-152.222-324.473-48.195-102.729-170.532-146.946-273.261-98.753 0 0-212.769 99.818-212.769 99.818l-29.037-30.704 47.074-43.453c9.797-9.046 10.863-24.159 2.433-34.502l-142.343-174.495c-8.075-9.893-21.741-13.241-33.477-8.171-11.739 5.057-18.693 17.285-17.039 29.966l14.361 109.766zM918.131 339.993l152.208 324.473c22.028 46.937 1.818 102.824-45.107 124.837-174.304 81.782-444.216 208.396-618.519 290.162-46.937 22.014-102.825 1.818-124.839-45.107 0 0-152.222-324.473-152.222-324.473-22.014-46.937-1.818-102.824 45.107-124.838 174.318-81.782 444.216-208.396 618.519-290.162 46.937-22.014 102.825-1.818 124.852 45.107z"></path>
</svg>
