<!-- Generated by IcoMoon.io -->
<svg version="1.1" xmlns="http://www.w3.org/2000/svg" width="1200" height="1200" viewBox="0 0 1200 1200">
<title>pokerus-infected</title>
<path d="M83.032 0.001c-16.201 0-32.401 6.189-44.76 18.547-6.514 6.499-13.228 13.187-19.727 19.7-24.717 24.717-24.717 64.801 0 89.518l146.010 145.982c-68.793 92.638-109.521 207.382-109.521 331.559 0 121.433 38.952 233.863 105.042 325.431l-141.531 141.477c-24.717 24.731-24.717 64.829 0 89.546l19.727 19.702c24.717 24.717 64.787 24.717 89.518 0l139.113-139.113c94.889 75.052 214.753 119.88 345.022 119.88 124.164 0 238.894-40.743 331.53-109.548l128.782 128.782c24.731 24.717 64.801 24.717 89.518 0 6.499-6.514 13.187-13.202 19.702-19.702 24.717-24.717 24.717-64.814 0-89.546l-127.849-127.849c72.239-93.916 115.236-211.506 115.236-339.059 0-130.269-44.827-250.134-119.88-345.022l132.491-132.519c24.717-24.717 24.717-64.801 0-89.518l-19.702-19.7c-24.717-24.717-64.787-24.717-89.518 0l-134.882 134.91c-91.568-66.091-203.996-105.042-325.431-105.042-127.568 0-245.169 42.97-339.087 115.208l-145.048-145.076c-12.366-12.359-28.557-18.547-44.759-18.547zM818.108 310.318c34.959 0 63.306 28.346 63.306 63.306v205.552c0 34.959-28.346 63.306-63.306 63.306s-63.306-28.346-63.306-63.306v-205.552c0-34.959 28.346-63.306 63.306-63.306zM402.17 311.967c34.972 0 63.306 28.346 63.306 63.306v205.579c0 34.959-28.334 63.306-63.306 63.306-34.959 0-63.306-28.346-63.306-63.306v-205.579c0-34.959 28.346-63.306 63.306-63.306zM447.204 785.276h322.793v126.612h-322.793v-126.612z"></path>
</svg>
