<!-- Generated by IcoMoon.io -->
<svg version="1.1" xmlns="http://www.w3.org/2000/svg" width="1200" height="1200" viewBox="0 0 1200 1200">
<title>pokedex</title>
<path d="M1020 750h-60v-60h-120v-131.040c69.66-24.84 120-90.839 120-168.96v-180c0-99.24-80.76-180-180-180h-420c-99.24 0-180 80.76-180 180v180c0 78.12 50.339 144.12 120 168.96v131.040h-120c-99.421 0-180 80.579-180 180v120c0 99.421 80.579 180 180 180h780v-60h60c99.421 0 180-80.579 180-180s-80.579-180-180-180zM360 990h-60v60h-120v-60h-60v-120h60v-60h120v60h60v120zM720 690h-299.999v-120h299.999v120zM780 450h-420c-33.12 0-60-26.939-60-60v-180c0-33.060 26.88-60 60-60h420c33.12 0 60 26.939 60 60v180c0 33.060-26.88 60-60 60zM1020 990c-33.12 0-60-26.88-60-60s26.88-60 60-60 60 26.88 60 60c0 33.12-26.88 60-60 60z"></path>
</svg>
