<!-- Generated by IcoMoon.io -->
<svg version="1.1" xmlns="http://www.w3.org/2000/svg" width="1200" height="1200" viewBox="0 0 1200 1200">
<title>ribbon</title>
<path d="M308.695 776.739l-129.151 291.948c-2.227 5.025-1.679 10.856 1.434 15.376 3.1 4.533 8.343 7.143 13.833 6.868 39.136-1.884 111.769-5.38 135.843-6.54 5.025-0.246 9.859 1.911 13.042 5.803 15.102 18.49 60.342 73.888 84.922 103.984 3.482 4.261 8.945 6.417 14.406 5.68s10.145-4.261 12.371-9.299l144.173-325.896 144.173 325.896c2.227 5.039 6.909 8.562 12.371 9.299s10.911-1.419 14.393-5.68c24.594-30.096 69.833-85.495 84.936-103.984 3.169-3.892 8.016-6.049 13.027-5.803 24.088 1.161 96.707 4.656 135.857 6.54 5.489 0.273 10.719-2.336 13.833-6.868 3.114-4.52 3.646-10.35 1.419-15.376l-129.138-291.921 53.502-5.23c18.462-1.802 35.257-11.415 46.154-26.423s14.857-33.961 10.856-52.068c0 0-23.979-108.859-23.979-108.859s83.38-73.97 83.38-73.97c13.861-12.316 21.807-29.973 21.807-48.518s-7.948-36.199-21.82-48.504c0 0-83.392-73.97-83.392-73.97s23.965-108.859 23.965-108.859c3.988-18.107 0.041-37.061-10.87-52.068-10.897-14.993-27.693-24.606-46.154-26.409 0 0-110.95-10.829-110.95-10.829s-44.585-102.155-44.585-102.155c-7.429-17-21.766-30.001-39.395-35.736-17.643-5.721-36.884-3.632-52.873 5.762l-96.12 56.45c0 0-96.132-56.436-96.132-56.436-15.99-9.381-35.23-11.484-52.873-5.749-17.63 5.735-31.968 18.736-39.382 35.736 0 0-44.585 102.169-44.585 102.169s-110.936 10.842-110.936 10.842c-18.462 1.802-35.257 11.429-46.154 26.423-10.911 15.007-14.857 33.961-10.87 52.068 0 0 23.992 108.859 23.992 108.859s-83.38 73.984-83.38 73.984c-13.874 12.304-21.807 29.96-21.807 48.504s7.948 36.199 21.807 48.504c0 0 83.407 73.97 83.407 73.97s-23.979 108.859-23.979 108.859c-3.988 18.121-0.027 37.075 10.87 52.068 10.911 15.007 27.707 24.62 46.168 26.423l52.586 5.135zM724.212 79.314l48.845 111.891c5.434 12.454 17.191 20.988 30.71 22.312l121.519 11.854-26.259 119.237c-2.923 13.259 1.57 27.064 11.73 36.091l91.339 81.016-91.327 81.030c-10.159 9.013-14.652 22.818-11.716 36.091l26.273 119.237-121.519 11.866c-13.519 1.325-25.262 9.859-30.697 22.312l-48.831 111.905-105.282-61.818c-11.716-6.882-26.232-6.868-37.949 0l-105.282 61.845-48.845-111.905c-5.434-12.454-17.179-20.974-30.697-22.3l-121.519-11.854 26.245-119.237c2.923-13.273-1.556-27.079-11.716-36.091l-91.354-81.016 91.327-81.030c10.173-9.027 14.652-22.832 11.73-36.091l-26.273-119.237 121.519-11.88c13.519-1.325 25.262-9.859 30.697-22.3l48.817-111.919 105.296 61.818c11.716 6.882 26.232 6.882 37.949 0l105.268-61.83z"></path>
<path d="M600.657 260.507c-114.356 0-207.263 92.906-207.263 207.263s92.906 207.262 207.263 207.262c114.356 0 207.263-92.906 207.263-207.262s-92.906-207.263-207.263-207.263zM600.657 335.515c73.036 0 132.384 59.217 132.384 132.253s-59.35 132.384-132.384 132.384c-73.036 0-132.253-59.35-132.253-132.384s59.218-132.253 132.253-132.253z"></path>
</svg>
