<!-- Generated by IcoMoon.io -->
<svg version="1.1" xmlns="http://www.w3.org/2000/svg" width="1200" height="1200" viewBox="0 0 1200 1200">
<title>stats</title>
<path d="M618.777 5.032c-11.62-6.71-25.935-6.71-37.555 0l-487.092 281.22c-11.62 6.71-18.777 19.111-18.777 32.527v562.443c0 13.42 7.158 25.816 18.777 32.527l487.092 281.22c11.62 6.71 25.935 6.71 37.555 0l487.092-281.22c11.62-6.71 18.777-19.106 18.777-32.527v-562.443c0-13.416-7.158-25.816-18.777-32.527l-487.092-281.22zM600 80.926l449.532 259.539c0 0 0 519.075 0 519.075 0-0.005-449.532 259.534-449.532 259.534s-449.532-259.539-449.532-259.539c0 0.005 0-519.070 0-519.070l449.532-259.539z"></path>
<path d="M603.202 276.348l6.755 325.393 276.134 164.582-282.888 163.321-282.888-163.321v-326.65l282.888-163.325z"></path>
</svg>
