<!-- Generated by IcoMoon.io -->
<svg version="1.1" xmlns="http://www.w3.org/2000/svg" width="1200" height="1200" viewBox="0 0 1200 1200">
<title>swap</title>
<path d="M983.007 290.149c0 34.315-28.902 62.132-64.555 62.132s-64.555-27.817-64.555-62.132c0-34.315 28.902-62.132 64.555-62.132s64.555 27.817 64.555 62.132z"></path>
<path d="M1072.561 338.181c44.386-0.034 83.446-0.205 112.384-0.546-23.257 121.274-133.867 213.259-266.491 213.259-132.979 0-243.764-92.463-266.668-214.18 28.761 0.189 67.821 0.41 112.207 0.632 20.95 63.021 82.202 108.714 154.462 108.714 72.081 0 133.157-45.3 154.106-107.876zM877.087 337.84c27.342 0.103 55.037 0.189 82.379 0.257-11.186 8.851-25.389 14.182-41.012 14.182s-30.182-5.418-41.367-14.44zM763.816 243.585c-44.386-0.223-83.266-0.461-111.852-0.632 23.080-121.411 133.69-213.548 266.491-213.548 133.157 0 243.942 92.6 266.668 214.454-28.406 0.359-67.288 0.53-111.674 0.581-20.418-63.772-82.024-110.183-154.995-110.183-72.615 0-134.045 46.001-154.639 109.329zM875.134 244.079c11.539-9.98 26.631-16.062 43.32-16.062 16.867 0 32.135 6.204 43.675 16.336-28.938-0.068-58.056-0.171-86.996-0.274z"></path>
<path d="M357.368 909.847c0 34.315-28.902 62.132-64.555 62.132s-64.555-27.817-64.555-62.132c0-34.315 28.902-62.132 64.555-62.132s64.555 27.817 64.555 62.132z"></path>
<path d="M446.921 957.882c44.386-0.034 83.446-0.205 112.384-0.546-23.257 121.274-133.867 213.259-266.491 213.259-132.979 0-243.764-92.463-266.668-214.18 28.761 0.189 67.821 0.41 112.207 0.632 20.95 63.021 82.202 108.714 154.462 108.714 72.081 0 133.157-45.3 154.106-107.876zM251.448 957.54c27.342 0.103 55.037 0.189 82.379 0.257-11.186 8.851-25.389 14.182-41.012 14.182s-30.182-5.418-41.367-14.44zM138.177 863.284c-44.386-0.223-83.266-0.461-111.852-0.632 23.080-121.411 133.69-213.548 266.491-213.548 133.157 0 243.942 92.6 266.668 214.454-28.406 0.359-67.288 0.53-111.674 0.581-20.418-63.772-82.024-110.183-154.995-110.183-72.615 0-134.045 46.001-154.639 109.329zM249.495 863.78c11.539-9.98 26.631-16.062 43.32-16.062 16.867 0 32.135 6.204 43.675 16.336-28.938-0.068-58.056-0.171-86.996-0.274z"></path>
<path d="M222.833 76.321h-161.448v279.329h-47.972c-5.441 0-10.357 3.329-12.415 8.324-2.058 5.064-0.875 10.82 2.996 14.637 36.097 35.583 103.88 102.312 128.695 126.728 5.223 5.133 13.61 5.133 18.833 0 24.816-24.416 92.597-91.145 128.684-126.728 3.885-3.814 5.070-9.572 3.009-14.637-2.071-4.995-6.973-8.324-12.415-8.324-22.371 0-47.972 0-47.972 0v-279.329z"></path>
<path d="M977.167 1133.674h161.448v-279.329h47.972c5.441 0 10.357-3.329 12.415-8.324 2.058-5.064 0.875-10.82-2.996-14.637-36.097-35.583-103.88-102.312-128.695-126.728-5.223-5.133-13.61-5.133-18.833 0-24.816 24.416-92.597 91.145-128.684 126.728-3.885 3.814-5.070 9.572-3.009 14.637 2.071 4.995 6.973 8.324 12.415 8.324 22.371 0 47.972 0 47.972 0v279.329z"></path>
<path d="M194.699 237.564h279.387v-161.435h-279.387v161.435z"></path>
<path d="M1005.24 972.477h-279.387v161.435h279.387v-161.435z"></path>
</svg>
