<!-- Generated by IcoMoon.io -->
<svg version="1.1" xmlns="http://www.w3.org/2000/svg" width="1200" height="1200" viewBox="0 0 1200 1200">
<title>teratype</title>
<path d="M608.529 7.958c-1.458-4.731-5.83-7.958-10.781-7.958s-9.322 3.229-10.781 7.958l-74.991 243.348c0 0-104.957 103.713-104.957 103.713s-190.57-53.077-190.57-53.077c-4.682-1.303-9.674 0.538-12.387 4.571s-2.537 9.35 0.435 13.196l148.22 191.745c0 0 0 188.27 0 188.27s-148.113 185.611-148.113 185.611c-3.094 3.877-3.292 9.321-0.487 13.412s7.95 5.872 12.684 4.386l185.142-58.104c0-0.001 104.524 92.721 104.524 92.721s80.527 254.371 80.527 254.371c1.485 4.686 5.835 7.88 10.755 7.88s9.271-3.191 10.755-7.88l80.527-254.371c0 0 104.561-92.754 104.561-92.754s189.682 58.159 189.682 58.159c4.758 1.459 9.911-0.373 12.68-4.507s2.503-9.596-0.657-13.441l-152.516-185.573c0 0 0-188.087 0-188.087s152.626-191.709 152.626-191.709c3.039-3.817 3.28-9.154 0.598-13.229s-7.68-5.965-12.387-4.682l-195.107 53.123c-0.001 0-104.989-103.744-104.989-103.744s-74.991-243.348-74.991-243.348zM597.746 396.524c3.367 0 93.633 83.77 95.314 89.088s1.685 229.1 0 234.417c-1.684 5.319-91.948 89.088-95.314 89.088s-93.633-83.77-95.316-89.088c-1.685-5.318-1.685-229.099 0-234.417s91.948-89.088 95.316-89.088z"></path>
</svg>
