<svg clip-rule="evenodd" fill-rule="evenodd" stroke-linejoin="round" stroke-miterlimit="2" viewBox="0 0 256 256" xmlns="http://www.w3.org/2000/svg"><path d="m198.801 43.257c-1.204.951-16.266 30.43-16.369 30.635-4.744 9.352-5.835 10.294-8.134 11.93-1.798 1.28-51.437 29.559-57.065 32.581-7.018 3.769-8.321 4.134-12.656 3.548-1.792-.242-45.182-5.662-48.325-5.668-6.366-.014-6.36 1.664.051 14.992 2.705 5.623 23.016 51.2 23.016 51.2l.297 75.122s-25.536 56.123-26.317 57.747c-3.666 7.621-2.039 9.727 6.49 8.402 5.18-.805 42.17-5.279 43.93-5.489 6.281-.751 6.834-.611 13.424 3.42 2.077 1.27 56.758 31.383 57.545 31.786 2.307 1.183 2.965 2.168 7.777 11.622 1.661 3.264 14.882 28.275 15.778 29.389l.001.001v-.001c1.988 2.472 3.4.76 6.347-4.917 1.199-2.31 14.78-29.251 15.134-30.013 2.287-4.928 2.983-5.74 6.641-7.758 1.933-1.066 50.773-28.135 56.401-31.157 7.018-3.769 8.321-4.134 12.656-3.548 1.792.242 45.182 5.662 48.325 5.668 6.366.014 6.36-1.664-.051-14.992-2.705-5.623-23.016-51.2-23.016-51.2l-.297-75.122s25.536-56.123 26.317-57.747c3.666-7.621 2.039-9.727-6.49-8.402-5.18.805-42.17 5.279-43.93 5.489-6.281.751-6.834.611-13.424-3.42-2.077-1.27-56.758-31.383-57.545-31.786-2.307-1.183-2.965-2.168-7.777-11.622-2.516-4.945-14.86-29.166-16.033-30.49-.729-.822-1.812-.902-2.701-.2z" transform="matrix(.70648 0 0 .70648 -13.2959 -26.8449)"/></svg>