<!-- Generated by IcoMoon.io -->
<svg version="1.1" xmlns="http://www.w3.org/2000/svg" width="1200" height="1200" viewBox="0 0 1200 1200">
<title>treasure</title>
<path d="M679.717 81.868c-39.055-8.471-78.904-12.739-118.868-12.739-309.54 0-560.849 251.307-560.849 560.849s251.307 560.849 560.849 560.849c309.54 0 560.849-251.307 560.849-560.849 0-39.966-4.268-79.814-12.739-118.868-4.632-21.363-25.738-34.943-47.1-30.311s-34.948 25.738-30.315 47.1c7.275 33.539 10.943 67.758 10.943 102.077 0 265.821-215.815 481.635-481.635 481.635s-481.635-215.815-481.635-481.635c0-265.821 215.815-481.635 481.635-481.635 34.321 0 68.538 3.668 102.077 10.943 21.363 4.632 42.468-8.952 47.1-30.315s-8.947-42.468-30.311-47.1z"></path>
<path d="M214.95 653.632c0 174.977 141.848 316.825 316.829 316.825 21.858 0 39.604-17.747 39.604-39.608 0-21.858-17.747-39.604-39.604-39.604-131.234 0-237.616-106.383-237.616-237.612 0-21.862-17.747-39.608-39.604-39.608-21.863 0-39.608 17.747-39.608 39.608z"></path>
<path d="M904.316 9.173l79.86 214.064 215.824 79.214-215.824 79.209-79.86 214.064-79.864-214.064-215.824-79.209 215.824-79.214 79.864-214.064z"></path>
</svg>
