<!-- Generated by IcoMoon.io -->
<svg version="1.1" xmlns="http://www.w3.org/2000/svg" width="1200" height="1200" viewBox="0 0 1200 1200">
<title>wild-poke</title>
<path d="M281.603 0.066c-4.288 0.232-8.556 1.055-12.737 2.476-16.727 5.691-28.949 20.202-31.697 37.652l-58.705 373.55c-87.696 72.267-139.141 166.691-139.141 268.818 0 152.79 117.074 289.473 295.589 358.63-0.015-0.015 96.948 138.521 96.948 138.521 8.906 12.71 23.46 20.285 38.98 20.285 15.534 0 30.073-7.575 38.98-20.285l63.777-91.079c8.741 0.287 17.529 0.443 26.389 0.443 7.548 0 15.054-0.114 22.527-0.325l63.688 90.962c8.906 12.71 23.46 20.285 38.98 20.285s30.073-7.575 38.98-20.285l95.532-136.458c181.489-68.477 300.986-206.393 300.986-360.693 0-103.454-52.812-199.004-142.622-271.62l-58.291-370.746c-2.747-17.452-14.91-31.962-31.637-37.652-16.741-5.691-35.259-1.642-48.090 10.526l-277.603 263.009-7.871 0.029c0.015 0-277.635-263.037-277.635-263.037-9.623-9.125-22.459-13.7-35.323-13.003zM365.783 506.358c63.143 0.731 125.55 48.452 151.259 122.010 31.642 90.533-4.195 186.108-79.964 213.295-75.784 27.19-162.989-24.238-194.632-114.756-31.642-90.533 4.179-186.123 79.964-213.295 14.209-5.098 28.801-7.421 43.373-7.254zM834.157 506.74c14.572-0.169 29.194 2.186 43.403 7.283 75.784 27.173 111.606 122.734 79.964 213.267-31.642 90.518-118.849 141.946-194.632 114.756-75.769-27.19-111.606-122.734-79.964-213.267 25.709-73.559 88.086-121.308 151.229-122.039z"></path>
</svg>
