<?xml version="1.0" encoding="UTF-8" standalone="no"?>
<!DOCTYPE svg PUBLIC "-//W3C//DTD SVG 1.1//EN" "http://www.w3.org/Graphics/SVG/1.1/DTD/svg11.dtd">
<svg width="100%" height="100%" viewBox="0 0 1200 1200" version="1.1" xmlns="http://www.w3.org/2000/svg" xmlns:xlink="http://www.w3.org/1999/xlink" xml:space="preserve" xmlns:serif="http://www.serif.com/" style="fill-rule:evenodd;clip-rule:evenodd;stroke-linejoin:round;stroke-miterlimit:2;">
    <g transform="matrix(1,0,0,1,-0.0005,50.2137)">
        <path d="M549.003,978.69C512.618,989.957 343.662,960.564 343.662,960.564C323.005,876.057 281.69,802.817 219.719,740.846C157.748,678.875 84.508,637.56 0.001,616.903C18.781,611.27 38.03,607.044 57.747,604.227C77.464,601.41 97.652,600.001 118.311,600.001C185.916,600.001 248.827,612.677 307.044,638.03C365.261,663.383 415.965,697.655 459.157,740.847C502.349,784.039 536.621,834.743 561.974,892.96C587.327,951.177 576.611,970.141 549.003,978.69ZM1200,616.903C1181.22,611.27 1161.97,607.044 1142.25,604.227C1122.54,601.41 1102.35,600.001 1081.69,600.001C993.427,600.001 912.675,621.597 839.436,664.789C766.197,707.981 708.92,765.258 667.605,836.62C676.995,855.4 684.976,875.118 691.549,895.775C698.122,916.432 711.286,935.028 715.042,957.563C722.554,997 853.521,960.563 853.521,960.563C876.056,876.056 918.31,802.816 980.282,740.845C1042.25,678.874 1115.49,637.559 1200,616.902L1200,616.903ZM819.718,540.846C842.253,478.874 874.648,422.067 916.902,370.424C959.156,318.781 1008.45,275.119 1064.79,239.438C1000.94,243.194 940.845,257.748 884.508,283.1C828.171,308.452 778.875,342.724 736.621,385.917C694.367,429.11 661.034,479.344 636.621,536.621C612.208,593.898 600.002,655.4 600.001,721.128C658.216,644.133 731.456,584.039 819.719,540.847L819.718,540.846ZM566.197,411.268C539.906,345.541 502.347,287.325 453.521,236.62C404.695,185.915 347.418,146.479 281.69,118.31C324.882,174.648 358.685,237.089 383.098,305.634C407.511,374.179 419.718,446.01 419.718,521.127C419.718,528.639 419.248,535.212 418.309,540.845C417.37,546.478 416.9,552.112 416.9,557.747C430.045,565.259 442.722,573.24 454.929,581.691C467.136,590.142 478.873,599.062 490.14,608.452C497.652,572.771 507.511,538.499 519.717,505.635C531.923,472.771 547.416,441.316 566.196,411.269L566.197,411.268Z" style="fill-rule:nonzero;"/>
    </g>
</svg>
